<svg id="f043da89-afb5-4746-89c4-03899f97c110" data-name="Layer 1" xmlns="http://www.w3.org/2000/svg" viewBox="0 0 72.25 52.72"><ellipse cx="13.44" cy="28.82" rx="4.8" ry="6.2" style="fill:#c1875d"/><ellipse cx="40.67" cy="32.52" rx="4.8" ry="6.2" style="fill:#c1875d"/><path d="M15.24,22.42v23.2c0,2.8-1.3,3.1-2.9,3.1s-2.9-.2-2.9-3.1V22.42h5.8" style="fill:#c1875d"/><path d="M8.64,50.72h7.3l-.7-5.1a3.71,3.71,0,0,0-2.9-1,3.7,3.7,0,0,0-2.9,1l-.8,5.1" style="fill:#89664c"/><path d="M42.1,22.42v23.2c0,2.8-1.3,3.1-2.9,3.1s-2.9-.2-2.9-3.1V22.42h5.8" style="fill:#c1875d"/><path d="M35.55,50.72h7.3l-.7-5.1a3.71,3.71,0,0,0-2.9-1,3.7,3.7,0,0,0-2.9,1l-.8,5.1" style="fill:#89664c"/><path d="M11.54,22.42v23.2c0,2.8-1.3,3.1-2.9,3.1s-2.9-.2-2.9-3.1V22.42Z" style="fill:#e0ac7e"/><path d="M4.94,50.72h7.3l-.7-5.1a3.71,3.71,0,0,0-2.9-1c-2.2,0-2.9,1-2.9,1l-.8,5.1" style="fill:#c1875d"/><path d="M4.14,30.32c-.2-4.8,3.4-9.5,3.4-9.6l-.7-.5c-.2.2-3.8,5-3.6,10.1h.9" style="fill:#e0ac7e"/><path d="M3.74,27.62a8.51,8.51,0,0,1,1.2,3.2,6.79,6.79,0,0,1-1.2,2.6,8.64,8.64,0,0,1-1.2-3.2,6.58,6.58,0,0,1,1.2-2.6" style="fill:#e0ac7e"/><path d="M5.64,24.62c-.5,5.8,12,7.9,21.5,7.9,12.3,0,18.71-4.22,18-8.91-1.45-7.13-4.52-8.57-8.45-10-5.9-2-10.65-1.22-16.85-.62-7.8.7-14.2,5.2-14.2,11.6" style="fill:#e0ac7e"/><path d="M21.57,15.19C21.68,20.58,25,25,29,24.91s7.14-4.52,7-10c0-.31-3.47-9.82-7.44-9.73s-7,9.72-7,10.06" style="fill:#e0ac7e"/><path d="M39.87,22.42v23.2c0,2.8-1.3,3.1-2.9,3.1s-2.9-.2-2.9-3.1V22.42h5.8" style="fill:#e0ac7e"/><path d="M33.32,50.72h7.3l-.7-5.1a3.71,3.71,0,0,0-2.9-1c-2.2,0-2.9,1-2.9,1l-.8,5.1" style="fill:#c1875d"/><path d="M64.83,14.88C59.93,17,58,15,58,15c9.3,10.8-3.59,30.14-21.69,13.84-21.6-19.4-2.5-8.1.6-8.1s16.5,6.9,13.39-3.24c-4.65-15.1,8-10.2,14.4-9.9,3.4.2,3.4,2.3,5,3.2.9.6.5,1.2-.1,1.3v.4a1.14,1.14,0,0,1-.8,2.1,5.29,5.29,0,0,0-4,.3" style="fill:#e0ac7e"/><path d="M58,15c9.6,10-3.15,29.37-20.09,15.14C55.43,39.24,61.13,19.08,58,15" style="fill:#ffe2b3"/><ellipse cx="36.97" cy="33.42" rx="4.8" ry="6.2" style="fill:#e0ac7e"/><ellipse cx="10.44" cy="28.02" rx="4.8" ry="6.2" style="fill:#e0ac7e"/><path d="M49.43,9.48c1.4-2.9,6.5-6.7,10.4-6.5,0,0-1.4.6-1.4,1.7,0,0,1.8,0,2.3.5-1.4.4-1.6,1-1.6,1a2.32,2.32,0,0,1,2,.5c-1.4,0-1.4.3-3.2,1.4s-8.5,1.4-8.5,1.4" style="fill:#e0ac7e"/><path d="M67.63,9.68c-.1.1-.5,0-.9-.3s-.7-.6-.6-.7.5,0,.9.3.7.6.6.7" style="fill:#89664c"/><ellipse cx="57.53" cy="10.18" rx="2.1" ry="1.5" style="fill:#c1875d"/><ellipse cx="57.53" cy="9.88" rx="0.9" ry="0.7" style="fill:#3e4347"/><path d="M53.73,8.78c-.3-.4-2.8-1-4.1-1.1s-.2,3,2.1,3.4a1.66,1.66,0,0,0,2-2.3" style="fill:#c1875d"/><path d="M53.33,9.48c-.2-.4-2.2-.9-3.2-.9s-.1,2.5,1.6,2.9a1.45,1.45,0,0,0,1.69-1.15,1.54,1.54,0,0,0-.09-.85" style="fill:#e0ac7e"/><path d="M69.63,12.18c-2.6,0-6.5,1.3-8.5.7,2.5,1,5.9-.2,8.5-.2v-.5" style="fill:#89664c"/><path d="M9.89,20.56a1.51,1.51,0,0,1,.4-2.1.57.57,0,0,0,.13-.08,1.39,1.39,0,0,1,1-.11l-.07.44a.9.9,0,0,0-.68.08,1.07,1.07,0,0,0-.31,1.48l0,0c.34.63.92.9,1.41.59a1.1,1.1,0,0,0,.5-.62l.37.2a1.58,1.58,0,0,1-.7.83,1.47,1.47,0,0,1-2-.56Z"/><path d="M12.69,19.92c-.27-.62.13-1.17,1.29-1.83-.15-.36-.43-.66-.9-.47a1.75,1.75,0,0,0-.72.68L12,18.05a2.34,2.34,0,0,1,1-.86c.7-.29,1.2,0,1.5.75l.76,1.76-.41.18-.18-.33h0a1.7,1.7,0,0,1-.78.81A.85.85,0,0,1,12.73,20,.3.3,0,0,1,12.69,19.92Zm1.77-.72-.34-.78c-.94.52-1.13.9-1,1.26a.47.47,0,0,0,.62.28.2.2,0,0,0,.08,0A1.2,1.2,0,0,0,14.46,19.2Z"/><path d="M15,16.42l.41-.13.18.43h0a1.36,1.36,0,0,1,.78-.78.81.81,0,0,1,1,.32,1.42,1.42,0,0,1,.8-.86c.62-.18,1,.13,1.26.86L20,18.15l-.51.15L19,16.47c-.17-.56-.41-.74-.79-.63s-.43.3-.61.68l.64,2.17-.51.15L17.16,17c-.16-.55-.41-.74-.79-.63s-.43.29-.61.68l.64,2.16-.51.15Z"/><path d="M20.3,16.58a1.53,1.53,0,0,1,1.1-1.86c.8-.1,1.32.35,1.48,1.22a1.53,1.53,0,0,1,0,.3l-2.07.36a1,1,0,0,0,1.1.89l.11,0a1.37,1.37,0,0,0,.72-.38l.24.31a1.75,1.75,0,0,1-1,.49,1.49,1.49,0,0,1-1.74-1.18C20.31,16.66,20.31,16.62,20.3,16.58ZM22.42,16c-.07-.62-.45-.9-.93-.82a1,1,0,0,0-.71,1.09Z"/><path d="M23.73,17l-.4-3.91.51-.06.46,4c0,.16.1.21.18.2h.11l.12.39a1.15,1.15,0,0,1-.31,0C24,17.67,23.77,17.43,23.73,17Z"/><path d="M25.43,13.1c.08-2.68,1.6-4.31,3.74-4.24a2.89,2.89,0,0,1,2.22,1.05l-.37.4a2.41,2.41,0,0,0-1.82-.92c-1.83-.06-3,1.36-3.08,3.7s1,3.91,2.8,3.93a2.71,2.71,0,0,0,2.16-1l.35.39a3.11,3.11,0,0,1-2.56,1.13C26.74,17.5,25.34,15.79,25.43,13.1Z"/><path d="M32,16.9c.13-.66.77-.89,2.1-.77.08-.4,0-.81-.49-.95a1.8,1.8,0,0,0-1,.11l-.12-.39a2.25,2.25,0,0,1,1.28-.15c.74.14,1,.7.81,1.46l-.36,1.88L33.76,18l0-.32h0a1.71,1.71,0,0,1-1.1.24.85.85,0,0,1-.76-.93A.3.3,0,0,1,32,16.9Zm1.87.41.16-.84c-1-.09-1.45.11-1.52.49a.48.48,0,0,0,.35.58h.09a1.26,1.26,0,0,0,.92-.21Z"/><path d="M34.72,18l.35-.26a1.35,1.35,0,0,0,.77.62.56.56,0,0,0,.73-.29c.07-.21-.23-.55-.52-.77s-.78-.62-.64-1.13a.94.94,0,0,1,1.2-.58l.09,0a1.61,1.61,0,0,1,.82.61l-.33.25a1.13,1.13,0,0,0-.61-.46.49.49,0,0,0-.67.26c-.07.19.2.49.51.71s.81.61.64,1.18a1,1,0,0,1-1.28.59l-.07,0A1.86,1.86,0,0,1,34.72,18Z"/><path d="M37.69,17.6a1.51,1.51,0,0,1,1.88-1h0a1.21,1.21,0,0,1,.62,1.82,1.15,1.15,0,0,1-.14.27l-2-.78a1,1,0,0,0,.44,1.35l.13.05a1.48,1.48,0,0,0,.81.05l0,.39a1.83,1.83,0,0,1-1-.08,1.48,1.48,0,0,1-.89-1.91A.58.58,0,0,1,37.69,17.6Zm2.08.56c.24-.58.1-1-.35-1.17a1,1,0,0,0-1.19.57Z"/></svg>