<svg id="Layer_1" data-name="Layer 1" xmlns="http://www.w3.org/2000/svg" viewBox="0 0 16 16">
    <defs>
        <style>.cls-1{fill:#666;}.cls-2{fill:gray;}.cls-3{fill:#b3b3b3;}.cls-4{fill:none;}.cls-5{fill:#e6e6e6;}</style>
    </defs>
    <title>pluginIcon_dark</title>
    <path class="cls-1" d="M11.73,9.83l0-2.63H15V15H9V9.83ZM9,9.28h2.19V7.2Z"/>
    <path class="cls-2" d="M10.73,8.83l0-2.63H14V14H8V8.83ZM8,8.28h2.19V6.2Z"/>
    <path class="cls-3" d="M9.73,7.83l0-2.63H13V13H7V7.83ZM7,7.28H9.19V5.2Z"/>
    <polygon class="cls-4" points="2.33 5.46 6.97 5.46 6.93 0.98 6.04 0.98 2.33 4.52 2.33 5.46"/>
    <path class="cls-5" d="M5.12,3.26V6.11H4.3V5.37A1.67,1.67,0,0,1,3.64,6a2.07,2.07,0,0,1-1,.21,1.7,1.7,0,0,1-1.22-.43A1.52,1.52,0,0,1,1,4.66a1.52,1.52,0,0,1,.56-1.27A2.63,2.63,0,0,1,3.2,3H4.3V2.83A1.12,1.12,0,0,0,4,2a1.41,1.41,0,0,0-1-.27,2.77,2.77,0,0,0-.84.13,3.33,3.33,0,0,0-.83.35V1.35a4.49,4.49,0,0,1,.87-.26A3.7,3.7,0,0,1,3,1a2.76,2.76,0,0,1,1.06.18,1.69,1.69,0,0,1,.71.55,1.2,1.2,0,0,1,.24.55A4.85,4.85,0,0,1,5.12,3.26ZM3.53,3.6H3.26a2,2,0,0,0-1.08.25.86.86,0,0,0-.36.75.9.9,0,0,0,.27.7,1,1,0,0,0,.75.25,1.29,1.29,0,0,0,1.07-.47,2,2,0,0,0,.39-1.3V3.6Z"/>
    <path class="cls-5" d="M6.29,1.83V1L11,2.88v.74L6.29,5.48V4.67l3.79-1.42Z"/>
</svg>
