<svg xmlns="http://www.w3.org/2000/svg" xmlns:xlink="http://www.w3.org/1999/xlink" width="40" height="40" viewBox="0 0 40 40">
  <defs>
    <polygon id="twig-a" points=".094 .003 13 .003 13 34.91 .094 34.91"/>
  </defs>
  <g fill="none" fill-rule="evenodd" transform="translate(6 2)">
    <g transform="translate(15 .997)">
      <mask id="twig-b" fill="#fff">
        <use xlink:href="#twig-a"/>
      </mask>
      <path fill="#84A51A" d="M4.839,34.9102 C4.911,16.5352 2.181,15.6422 4.121,8.4522 C5.173,4.5522 9.408,-1.4008 13,2.0132 C9.049,-3.4348 3.54,3.5752 2.11,6.7082 C-0.933,13.3692 0.241,15.6632 0.725,34.8182 L4.839,34.9102 Z" mask="url(#twig-b)"/>
    </g>
    <path fill="#B0C227" d="M21.1251,36.5618 C19.7011,24.4838 22.3961,14.8038 26.5381,12.1088 C22.2171,13.5628 18.7311,20.8368 17.4141,36.5618 L21.1251,36.5618 Z"/>
    <path fill="#75A719" d="M14.9962,36.9973 C16.4202,27.8733 13.6962,19.9293 7.9492,18.7673 C14.7022,18.7673 17.8632,25.0853 18.1502,36.9973 L14.9962,36.9973 Z"/>
    <path fill="#FFF" d="M17.8995 29.2258C17.8995 29.6668 17.5455 30.0248 17.1095 30.0248 16.6725 30.0248 16.3195 29.6668 16.3195 29.2258 16.3195 28.7848 16.6725 28.4268 17.1095 28.4268 17.5455 28.4268 17.8995 28.7848 17.8995 29.2258M19.9113 29.2258C19.9113 29.6668 19.5573 30.0248 19.1213 30.0248 18.6843 30.0248 18.3303 29.6668 18.3303 29.2258 18.3303 28.7848 18.6843 28.4268 19.1213 28.4268 19.5573 28.4268 19.9113 28.7848 19.9113 29.2258"/>
    <path fill="#76B538" d="M4.8126,36.2141 C4.9756,24.9201 4.6996,22.4881 4.3826,13.9971 C5.5696,19.2731 6.5556,21.5831 7.5156,36.2141 L4.8126,36.2141 Z"/>
    <path fill="#85B112" d="M3.9425,36.5852 C4.9795,30.2182 3.0165,25.1142 0.0005,23.6942 C3.1475,24.4612 5.6855,28.2952 6.6455,36.5852 L3.9425,36.5852 Z"/>
    <path fill="#A6C426" d="M7.9825,36.9973 C7.3105,32.7263 8.3155,29.0093 11.0275,28.4653 C7.8405,28.4653 5.8455,30.3193 6.2135,36.9973 L7.9825,36.9973 Z"/>
    <path fill="#FFF" d="M5.882 32.4651C5.882 32.8281 5.6 33.1221 5.251 33.1221 4.903 33.1221 4.62 32.8281 4.62 32.4651 4.62 32.1031 4.903 31.8081 5.251 31.8081 5.6 31.8081 5.882 32.1031 5.882 32.4651M7.4874 32.4651C7.4874 32.8281 7.2054 33.1221 6.8564 33.1221 6.5084 33.1221 6.2254 32.8281 6.2254 32.4651 6.2254 32.1031 6.5084 31.8081 6.8564 31.8081 7.2054 31.8081 7.4874 32.1031 7.4874 32.4651"/>
  </g>
</svg>
