<?xml version="1.0" encoding="UTF-8" standalone="no"?>
<svg
   t="1670036257069"
   class="icon"
   viewBox="0 0 884.86413 885.7442"
   version="1.1"
   p-id="6624"
   width="16"
   height="16 "
   id="svg78"
   sodipodi:docname="pokeball_step_1.svg"
   inkscape:export-filename="basketball7.svg"
   inkscape:export-xdpi="7.6799998"
   inkscape:export-ydpi="7.6799998"
   inkscape:version="1.2.1 (9c6d41e, 2022-07-14)"
   xmlns:inkscape="http://www.inkscape.org/namespaces/inkscape"
   xmlns:sodipodi="http://sodipodi.sourceforge.net/DTD/sodipodi-0.dtd"
   xmlns="http://www.w3.org/2000/svg"
   xmlns:svg="http://www.w3.org/2000/svg">
  <defs
     id="defs82" />
  <sodipodi:namedview
     id="namedview80"
     pagecolor="#ffffff"
     bordercolor="#000000"
     borderopacity="0.25"
     inkscape:showpageshadow="2"
     inkscape:pageopacity="0.0"
     inkscape:pagecheckerboard="0"
     inkscape:deskcolor="#d1d1d1"
     showgrid="false"
     inkscape:zoom="1.5115134"
     inkscape:rotation="-45"
     inkscape:cx="65.727833"
     inkscape:cy="129.3505"
     inkscape:window-width="1512"
     inkscape:window-height="846"
     inkscape:window-x="0"
     inkscape:window-y="38"
     inkscape:window-maximized="1"
     inkscape:current-layer="svg78" />
  <path
     d="m 129.05572,129.56773 c -172.75696,172.75695 -172.756968,453.84613 0,626.60872 172.75696,172.75699 453.85746,172.75698 626.6144,2e-5 172.75697,-172.75697 172.75696,-453.84614 -10e-6,-626.60876 -172.75695,-172.756957 -453.85743,-172.756948 -626.61439,2e-5 z"
     fill="#696065"
     p-id="6625"
     id="path68" />
  <path
     d="m 605.92522,339.02996 c 62.20651,62.20085 152.99041,78.67111 230.43669,49.58007 -10.45902,-76.5827 -43.11729,-150.68186 -98.05948,-211.73694 L 591.03538,324.14014 Z M 559.10523,292.21 706.21987,145.09535 C 645.57686,91.293304 572.32999,59.216404 496.62781,48.881584 467.53678,126.32222 484.00704,217.1174 546.2079,279.31827 Z"
     fill="#e25532"
     p-id="6626"
     data-spm-anchor-id="a313x.7781069.0.i19"
     class="selected"
     id="path70" />
  <path
     d="M 527.17511,324.14014 514.27773,311.24276 C 442.45889,239.41826 421.07238,136.00229 450.02796,45.314344 352.62889,43.451704 254.6992,76.973564 177.43354,146.00974 L 441.36385,409.94571 Z M 310.73079,514.78972 323.6225,527.68708 409.43374,441.87586 145.50342,177.93988 C 76.467223,255.20556 42.945373,353.14087 44.808013,450.53994 135.4903,421.58437 238.90629,442.97086 310.73078,514.78971 Z"
     fill="#e25532"
     p-id="6627"
     data-spm-anchor-id="a313x.7781069.0.i18"
     class="selected"
     id="path72" />
  <path
     d="m 278.80063,546.71422 c -62.20086,-62.20087 -152.99605,-78.6711 -230.436687,-49.57441 10.33481,75.70216 42.41173,148.94905 96.213777,209.59206 L 291.69234,559.61724 Z m 44.82186,44.82752 -147.26703,147.27268 c 61.05505,54.94222 135.15424,87.6005 211.74257,98.05949 29.09105,-77.44627 12.61515,-168.24146 -49.5857,-230.43668 z"
     fill="#e25532"
     p-id="6628"
     data-spm-anchor-id="a313x.7781069.0.i16"
     class=""
     id="path74" />
  <path
     d="m 355.5583,559.61722 14.88982,14.89548 c 71.83016,71.8245 93.21663,175.24048 64.24977,265.92279 97.3991,1.86265 195.33439,-31.65921 272.60006,-100.6954 L 441.36388,473.80037 Z m 218.43677,-188.66275 -14.89549,-14.88983 -85.81122,85.81122 265.9341,265.92279 C 808.253,630.53864 841.78049,532.60333 839.91785,435.20423 749.23554,464.16546 645.81955,442.7846 573.99506,370.95447 Z"
     fill="#e25532"
     p-id="6629"
     data-spm-anchor-id="a313x.7781069.0.i15"
     class="selected"
     id="path76" />
</svg>
