<?xml version="1.0" encoding="utf-8"?>
<!-- Generator: Adobe Illustrator 27.6.1, SVG Export Plug-In . SVG Version: 6.00 Build 0)  -->
<svg version="1.1" id="レイヤー_1" xmlns="http://www.w3.org/2000/svg" x="0px"
	 y="0px" viewBox="0 0 40 40" style="enable-background:new 0 0 40 40;" xml:space="preserve">
<style type="text/css">
	.st0{fill:#FBCF63;}
	.st1{fill:#E483B2;}
</style>
<g>
	<path class="st0" d="M36.3,11.8c-0.6-0.3-1.3-0.4-2-0.4c-0.7,0-1.4,0.2-2.1,0.4c-0.3,0.1-0.6-0.1-0.6-0.4c0-3.7-2.1-6.8-5.4-7.4
		C25.9,4,25.6,4,25.3,4c-1.6,0-3.2,0.7-4.4,1.8c-0.5,0.5-1.3,0.5-1.8,0C17.9,4.6,16.4,4,14.7,4c-0.3,0-0.7,0-1,0.1
		c-1.9,0.3-3.5,1.6-4.5,3.5c-0.5,1-0.8,2.2-0.9,3.4c0,0.5-0.6,0.9-1.1,0.8c-0.5-0.2-1.1-0.3-1.7-0.3c-0.7,0-1.4,0.1-2,0.4
		c-3,1.3-4.4,5.1-3.3,8.7c0.9,3,3.3,4.9,5.9,4.9l0,0c0.4,0,0.7,0.4,0.6,0.8C6.7,27.2,6.5,28,6.5,29c-0.1,2.5,0.3,4.4,1.5,5.6
		c0.6,0.7,1.8,1.5,3.8,1.5c1.5,0,3.1-0.5,4.7-0.9c1.3-0.4,2.7-0.8,3.7-0.8c1.3,0,2.9,0.4,4.5,0.9c1.6,0.4,3.1,0.8,4.4,0.8
		c2,0,3.1-0.9,3.7-1.6c1.4-1.7,1.1-4.2,0.8-5.8c-0.1-0.7-0.3-1.4-0.6-2.1c-0.2-0.5,0.2-1,0.7-1l0,0c0,0,0,0,0,0c2.6,0,5-2,5.9-4.9
		C40.7,16.9,39.3,13.1,36.3,11.8z"/>
	<g>
		<ellipse transform="matrix(0.9848 -0.1736 0.1736 0.9848 -3.1157 1.3214)" class="st1" cx="6" cy="18.5" rx="3.4" ry="4.5"/>
		<ellipse transform="matrix(0.1736 -0.9848 0.9848 0.1736 9.9146 48.7495)" class="st1" cx="34" cy="18.5" rx="4.5" ry="3.4"/>
		<g>
			<ellipse transform="matrix(0.9848 -0.1736 0.1736 0.9848 -1.8545 2.8129)" class="st1" cx="15.1" cy="12" rx="4.1" ry="5.5"/>
			<ellipse transform="matrix(0.1736 -0.9848 0.9848 0.1736 8.7132 34.3943)" class="st1" cx="24.9" cy="12" rx="5.5" ry="4.1"/>
		</g>
		<path class="st1" d="M31,29.1c0.9,5.5-5.4,2.6-10.9,2.6c-4.6,0-11.1,3.6-11-2.6c0-3.5,2.1-3.8,3.4-5.1c1.6-1.6,3.3-4.8,7.6-4.8
			c4.1,0.1,5.3,3.3,7,4.7C28.4,25,30.4,25.7,31,29.1z"/>
	</g>
</g>
</svg>
