<?xml version="1.0" standalone="no"?><!DOCTYPE svg PUBLIC "-//W3C//DTD SVG 1.1//EN" "http://www.w3.org/Graphics/SVG/1.1/DTD/svg11.dtd"><svg class="icon" viewBox="0 0 1024 1024" version="1.1" xmlns="http://www.w3.org/2000/svg" xmlns:xlink="http://www.w3.org/1999/xlink" width="40" height="40"><defs><style type="text/css"></style></defs><path d="M724.48 558.5408a51.2 51.2 0 0 1 43.52 50.6368V844.8a25.6 25.6 0 0 0 51.2 0V179.2a25.6 25.6 0 0 0-25.6-25.6c-2.6112 0-5.1712-0.2048-7.68-0.5632L793.6 102.4a76.8 76.8 0 0 1 76.8 76.8v665.6a76.8 76.8 0 0 1-153.6 0v-235.6224l7.68-50.6368z m43.52 50.6368V844.8a25.6 25.6 0 0 0 51.2 0V179.2a25.6 25.6 0 0 0-25.6-25.6c-2.6112 0-5.1712-0.2048-7.68-0.5632L793.6 102.4a76.8 76.8 0 0 1 76.8 76.8v665.6a76.8 76.8 0 0 1-153.6 0v-235.6224l7.68-50.6368a51.2 51.2 0 0 1 43.52 50.6368z" fill="#bfbfbf" ></path><path d="M742.4512 559.8208a25.6 25.6 0 0 1-2.944 51.1232c-111.5648-6.4768-167.9616-61.1072-146.2016-148.992 26.9568-203.8272 96.1024-332.3904 192.256-358.4256a25.6 25.6 0 0 1 13.3632 49.408c-70.5792 19.1232-130.3296 130.2016-155.392 318.464-13.5168 55.04 16 83.6096 98.9184 88.4224z" fill="#bfbfbf"></path><path d="M486.4 143.36a25.6 25.6 0 0 1 51.2 0v206.2848c0 101.2992-88.8576 169.6-204.8 169.6s-204.8-68.3008-204.8-169.6V143.36a25.6 25.6 0 1 1 51.2 0v206.2848c0 69.632 63.4368 118.4 153.6 118.4s153.6-48.768 153.6-118.4V143.36z" fill="#bfbfbf"></path><path d="M327.936 493.6192l-51.1488-2.816-17.0752 354.0736a73.1904 73.1904 0 0 0 75.9552 76.672 73.8816 73.8816 0 0 0 70.9632-76.6976l-12.416-347.5456-51.1488 1.8432 12.3904 347.5456a22.7072 22.7072 0 0 1-21.76 23.68L332.8 870.4a21.9904 21.9904 0 0 1-21.9904-21.9904l17.1008-354.7904z m-51.1488-2.816l-17.0752 354.0736a73.1904 73.1904 0 0 0 75.9552 76.672 73.8816 73.8816 0 0 0 70.9632-76.6976l-12.416-347.5456-51.1488 1.8432 12.3904 347.5456a22.7072 22.7072 0 0 1-21.76 23.68L332.8 870.4a21.9904 21.9904 0 0 1-21.9904-21.9904l17.1008-354.7904-51.1232-2.816zM256 153.6a25.6 25.6 0 0 1 51.2 0v153.6a25.6 25.6 0 0 1-51.2 0V153.6zM358.4 153.6a25.6 25.6 0 0 1 51.2 0v153.6a25.6 25.6 0 0 1-51.2 0V153.6z" fill="#bfbfbf" ></path></svg>