<svg id="checkov" xmlns="http://www.w3.org/2000/svg" width="256" height="256" viewBox="0 0 256 256">
  <defs>
    <style>
      .cls-1 {
        fill: #3d3c86;
      }

      .cls-2 {
        fill: #fff;
        fill-rule: evenodd;
      }
    </style>
  </defs>
  <rect class="cls-1" width="256" height="256" rx="40" ry="40"/>
  <path class="cls-2" d="M57.93,114.53a6.3,6.3,0,0,0-1.339-1.294,5.831,5.831,0,0,0-1.615-.8,5.905,5.905,0,0,0-1.786-.275,5.667,5.667,0,0,0-2.416.527,5.927,5.927,0,0,0-1.969,1.477,7.078,7.078,0,0,0-1.317,2.256,8.285,8.285,0,0,0-.481,2.886,6.031,6.031,0,0,0,.481,2.4,6.3,6.3,0,0,0,1.317,1.97,6.048,6.048,0,0,0,1.969,1.328,6.3,6.3,0,0,0,4.18.229,6.38,6.38,0,0,0,1.592-.721,5.951,5.951,0,0,0,1.329-1.145,6.058,6.058,0,0,0,.95-1.5l4.58,4.6a12.329,12.329,0,0,1-2,2.221,12.607,12.607,0,0,1-2.45,1.672,12.219,12.219,0,0,1-2.771,1.042,12.541,12.541,0,0,1-2.988.355,12.273,12.273,0,0,1-4.867-.973,12.551,12.551,0,0,1-6.676-6.63,12.054,12.054,0,0,1-.985-4.855,14,14,0,0,1,.985-5.268,13.582,13.582,0,0,1,2.691-4.271,12.716,12.716,0,0,1,3.985-2.874,11.461,11.461,0,0,1,4.867-1.053,11.746,11.746,0,0,1,3.011.389,12.143,12.143,0,0,1,5.291,2.954,11.354,11.354,0,0,1,1.958,2.473l-4.581,4.6A6.176,6.176,0,0,0,57.93,114.53Zm24.184,2.759H82.16a4.6,4.6,0,0,0-.366-1.82,4.713,4.713,0,0,0-2.5-2.508,4.513,4.513,0,0,0-1.809-.367,4.734,4.734,0,0,0-1.855.367,4.653,4.653,0,0,0-2.519,2.508,4.578,4.578,0,0,0-.366,1.82v14.016H66.5V97.021h6.252v10.833a7.3,7.3,0,0,1,2.313-1.2,8.474,8.474,0,0,1,2.427-.355,10.654,10.654,0,0,1,4.26.859,10.853,10.853,0,0,1,3.47,2.359,11.265,11.265,0,0,1,2.336,3.5,10.728,10.728,0,0,1,.859,4.271v14.016h-6.3V117.289Zm23.7-4.878a3.66,3.66,0,0,0-.859-0.206,8.329,8.329,0,0,0-.881-0.046,6.253,6.253,0,0,0-2.417.47,5.753,5.753,0,0,0-1.969,1.339,6.314,6.314,0,0,0-1.317,2.1,7.5,7.5,0,0,0-.481,2.76q0,0.343.034,0.778t0.115,0.882q0.08,0.447.195,0.859a3.172,3.172,0,0,0,.3.733Zm-2.473,13.042c0.244,0.024.488,0.035,0.733,0.035a6.154,6.154,0,0,0,1.763-.252,6.388,6.388,0,0,0,1.592-.721,5.935,5.935,0,0,0,1.328-1.145,6.072,6.072,0,0,0,.951-1.5l4.58,4.6a12.348,12.348,0,0,1-2,2.221,12.63,12.63,0,0,1-2.451,1.672,12.209,12.209,0,0,1-2.771,1.042,12.537,12.537,0,0,1-2.988.355,12.384,12.384,0,0,1-8.852-3.641,12.577,12.577,0,0,1-2.691-4.088,13.447,13.447,0,0,1-.985-5.21,13.89,13.89,0,0,1,.985-5.313,12,12,0,0,1,6.676-6.733,12.646,12.646,0,0,1,4.867-.939,12.34,12.34,0,0,1,3,.366,12.542,12.542,0,0,1,5.244,2.737,12.424,12.424,0,0,1,2.016,2.233l-11.726,14.13A3.518,3.518,0,0,0,103.344,125.453Zm29.863-10.923a6.3,6.3,0,0,0-1.339-1.294,5.881,5.881,0,0,0-3.4-1.077,5.667,5.667,0,0,0-2.416.527,5.932,5.932,0,0,0-1.97,1.477,7.083,7.083,0,0,0-1.316,2.256,8.282,8.282,0,0,0-.482,2.886,6.03,6.03,0,0,0,.482,2.4,6.307,6.307,0,0,0,1.316,1.97,6.054,6.054,0,0,0,1.97,1.328,6.3,6.3,0,0,0,4.179.229,6.371,6.371,0,0,0,1.592-.721,5.935,5.935,0,0,0,1.328-1.145,6.043,6.043,0,0,0,.951-1.5l4.58,4.6a12.31,12.31,0,0,1-2,2.221,12.6,12.6,0,0,1-2.451,1.672,12.219,12.219,0,0,1-2.77,1.042,12.545,12.545,0,0,1-2.989.355,12.272,12.272,0,0,1-4.867-.973,12.545,12.545,0,0,1-6.675-6.63,12.048,12.048,0,0,1-.985-4.855,13.988,13.988,0,0,1,.985-5.268,13.589,13.589,0,0,1,2.69-4.271,12.729,12.729,0,0,1,3.985-2.874,11.46,11.46,0,0,1,4.867-1.053,11.738,11.738,0,0,1,3.011.389,12.146,12.146,0,0,1,5.291,2.954,11.375,11.375,0,0,1,1.958,2.473l-4.581,4.6A6.179,6.179,0,0,0,133.207,114.53Zm24.184,16.775-4.969-8.909-4.351,5.772v3.137h-6.3V97.021h6.3V118.64l9.32-11.817h7.192l-8.13,10.214,8.13,14.268h-7.192Zm25.822-15.218a6.5,6.5,0,0,0-1.34-2.107,5.777,5.777,0,0,0-1.981-1.351,6.445,6.445,0,0,0-4.832,0,5.674,5.674,0,0,0-1.969,1.351,6.426,6.426,0,0,0-1.317,2.107,7.428,7.428,0,0,0-.481,2.737,7.072,7.072,0,0,0,.481,2.633,6.575,6.575,0,0,0,1.317,2.107,6.163,6.163,0,0,0,1.969,1.409,5.779,5.779,0,0,0,2.416.515,6.116,6.116,0,0,0,2.416-.481,5.994,5.994,0,0,0,1.981-1.351,6.329,6.329,0,0,0,1.34-2.107A7.811,7.811,0,0,0,183.213,116.087Zm3.126,11.954a12.532,12.532,0,0,1-3.973,2.726,12.443,12.443,0,0,1-9.756,0,12.559,12.559,0,0,1-6.676-6.825,13.2,13.2,0,0,1-.985-5.118,13.4,13.4,0,0,1,.985-5.176,12.661,12.661,0,0,1,2.691-4.111,12.52,12.52,0,0,1,3.985-2.714,12.141,12.141,0,0,1,4.866-.984,12.854,12.854,0,0,1,4.89.927,11.8,11.8,0,0,1,3.973,2.634,12.483,12.483,0,0,1,2.68,4.1,13.88,13.88,0,0,1,.984,5.325,13.214,13.214,0,0,1-.984,5.118A12.8,12.8,0,0,1,186.339,128.041Zm19.65,3.264h-6.275l-9.344-24.527h7.122l5.359,15.3,5.336-15.3h7.146ZM110.467,154.53a4.777,4.777,0,0,1-1.024,1.49,4.921,4.921,0,0,1-1.512,1.007,4.637,4.637,0,0,1-1.844.37l-1.117-.016V155.22l1.222,0.016a2.231,2.231,0,0,0,.737-0.123,2.466,2.466,0,0,0,.65-0.338,2.518,2.518,0,0,0,.526-0.51,2.722,2.722,0,0,0,.368-0.638l0.126-.307-0.308.129q-0.4.168-.819,0.336a2.116,2.116,0,0,1-.786.158,4.353,4.353,0,0,1-1.615-.3,4.022,4.022,0,0,1-1.322-.852,3.951,3.951,0,0,1-.892-1.344,4.693,4.693,0,0,1-.325-1.786v-5.106h2.16v5.106a2.537,2.537,0,0,0,.157.931,1.967,1.967,0,0,0,.429.675,1.747,1.747,0,0,0,.638.409,2.221,2.221,0,0,0,.77.133,1.685,1.685,0,0,0,.777-0.189,2.141,2.141,0,0,0,.628-0.487,2.366,2.366,0,0,0,.419-0.683,2.13,2.13,0,0,0,.153-0.789v-5.106h2.187v8.152A4.61,4.61,0,0,1,110.467,154.53ZM99.165,148a2.725,2.725,0,0,0-.552-0.863,2.545,2.545,0,0,0-.82-0.571,2.48,2.48,0,0,0-1-.207,2.279,2.279,0,0,0-1.008.231,2.751,2.751,0,0,0-.816.607,2.826,2.826,0,0,0-.546.865,2.688,2.688,0,0,0-.2,1.012,2.857,2.857,0,0,0,.2,1.069,2.646,2.646,0,0,0,.548.859,2.608,2.608,0,0,0,.819.575,2.481,2.481,0,0,0,2.007,0A2.622,2.622,0,0,0,98.613,151a2.735,2.735,0,0,0,.552-0.858,2.808,2.808,0,0,0,.2-1.07A2.839,2.839,0,0,0,99.165,148Zm2.014,3.058a4.691,4.691,0,0,1-1.019,1.537,4.559,4.559,0,0,1-1.509.993,4.915,4.915,0,0,1-1.861.353,4.78,4.78,0,0,1-1.851-.361,4.7,4.7,0,0,1-1.514-1.007,4.752,4.752,0,0,1-1.024-1.537,5.041,5.041,0,0,1-.375-1.962v-8.294H94.2v4.688l0.248-.313a2.09,2.09,0,0,1,.45-0.415,2.788,2.788,0,0,1,.58-0.3,3.918,3.918,0,0,1,.653-0.183,3.481,3.481,0,0,1,.655-0.065,4.746,4.746,0,0,1,1.859.366,4.648,4.648,0,0,1,1.51,1.019,4.889,4.889,0,0,1,1.019,1.546,5.014,5.014,0,0,1,.375,1.954A5.108,5.108,0,0,1,101.179,151.06Zm23.2-2.905a2.58,2.58,0,0,0-2.619-1.626,1.61,1.61,0,0,1-.359.051,4.206,4.206,0,0,0-.53.172,2.7,2.7,0,0,0-1.386,1.471,3.467,3.467,0,0,0-.137.514,2.341,2.341,0,0,0,.068,1.095,2.544,2.544,0,0,0,1.506,1.745,2.465,2.465,0,0,0,1.25.223,4.445,4.445,0,0,0,.7-0.154,2.723,2.723,0,0,0,1.506-1.42,3.98,3.98,0,0,0,.188-0.651A2.466,2.466,0,0,0,124.376,148.155Zm1.916,2.96a4.841,4.841,0,0,1-3.131,2.653c-0.214.069-.413,0.049-0.65,0.1a3.142,3.142,0,0,1-.616.034,4.256,4.256,0,0,1-2.448-.736,4.79,4.79,0,0,1-2-2.619,12.818,12.818,0,0,1-.239-3.593v-6.178h2.139v4.415h0.017a2.1,2.1,0,0,1,.633-0.342,7.951,7.951,0,0,1,1.164-.377l0.411-.033a2.257,2.257,0,0,1,.769,0l0.309,0.016a6.025,6.025,0,0,1,1.848.685,4.955,4.955,0,0,1,1.916,2.361,5.067,5.067,0,0,1,.172.651,4.34,4.34,0,0,1,.051,1.848A7.237,7.237,0,0,1,126.292,151.115ZM132.607,146a0.851,0.851,0,0,1-.41.531,1.175,1.175,0,0,0-.531,0l-0.308.017a2.047,2.047,0,0,0-1.01.428c-0.578.575-.53,1.388-0.53,2.533v4.466h-2.139v-4.312a9.142,9.142,0,0,1,.171-2.55,3.688,3.688,0,0,1,2.225-2.447,8.989,8.989,0,0,1,3.405-.154v0.034a3.551,3.551,0,0,0-.325.565C132.976,145.4,132.786,145.707,132.607,146Zm3.833,7.975H134.3v-9.4h2.138v9.4Zm0.086-10.849a0.479,0.479,0,0,1-.086.445,1.057,1.057,0,0,1-.462.034h-1.214c-0.152,0-.441-0.008-0.377-0.189l0.513-.495q0.718-.729,1.438-1.455h0.1a0.33,0.33,0,0,1,.052.068,0.918,0.918,0,0,1,.034.428v1.164Zm8.146,5.356a2.653,2.653,0,0,0-1.832-1.865,3.025,3.025,0,0,0-.907-0.086,1.067,1.067,0,0,1-.273.034,3.627,3.627,0,0,0-.565.172,2.747,2.747,0,0,0-1.454,1.557l-0.12.5a2.351,2.351,0,0,0,.1,1.13,2.546,2.546,0,0,0,1.523,1.676,2.383,2.383,0,0,0,1.2.206,4.639,4.639,0,0,0,.752-0.171,2.714,2.714,0,0,0,1.472-1.421,3.779,3.779,0,0,0,.171-0.582A2.382,2.382,0,0,0,144.672,148.48Zm2.19-1.455a4.176,4.176,0,0,1-.017.788v0.838a6.849,6.849,0,0,1-.154,1.951,4.731,4.731,0,0,1-1.831,2.447c-0.148.1-.305,0.161-0.462,0.257a4.665,4.665,0,0,1-3.32.5,4.842,4.842,0,0,1-3.354-2.858,6.694,6.694,0,0,1-.274-0.975,4.612,4.612,0,0,1,.171-2.242,4.691,4.691,0,0,1,2.978-3.046,4.915,4.915,0,0,1,2.67-.137,6.171,6.171,0,0,1,1.471.65v-4.415h2.139q-0.009,2.354-.017,4.707v1.539Zm8.146,1.4a2.634,2.634,0,0,0-1.814-1.8,3.062,3.062,0,0,0-.907-0.086,1.081,1.081,0,0,1-.274.034,3.738,3.738,0,0,0-.565.172,2.711,2.711,0,0,0-1.42,1.471,3.808,3.808,0,0,0-.154.6,2.221,2.221,0,0,0,.085,1.044,2.577,2.577,0,0,0,1.54,1.746,2.45,2.45,0,0,0,1.2.205,4.639,4.639,0,0,0,.752-0.171,2.72,2.72,0,0,0,1.489-1.455,3.507,3.507,0,0,0,.154-0.53A2.509,2.509,0,0,0,155.008,148.428Zm2.242,3.8a3.474,3.474,0,0,1,0,.684c-0.055.245,0.02,0.474-.035,0.7a7.154,7.154,0,0,1-.274,1.061,5.034,5.034,0,0,1-1.608,2.139,5.6,5.6,0,0,1-1.609.8c-0.223.073-.435,0.063-0.684,0.12a3.51,3.51,0,0,1-1.113.017l-0.7-.137a5.626,5.626,0,0,1-1.506-.718c-0.1-.073-0.192-0.183-0.291-0.257a3.036,3.036,0,0,1-.616-0.634,0.89,0.89,0,0,1-.24-0.325,3.018,3.018,0,0,0,.428-0.41l0.685-.668a1.837,1.837,0,0,1,.427-0.41v0.017a3.6,3.6,0,0,1,.308.462,2.721,2.721,0,0,0,1.113.821,2.808,2.808,0,0,0,1.813.018,2.579,2.579,0,0,0,1.78-2.379H155.11a2.184,2.184,0,0,1-.547.308,4.917,4.917,0,0,1-3.457.291,4.729,4.729,0,0,1-3.149-3.184,4.672,4.672,0,0,1-.119-2.344,7.253,7.253,0,0,1,.308-0.958,4.747,4.747,0,0,1,2.412-2.413,6.853,6.853,0,0,1,.959-0.308l0.582-.085a4.794,4.794,0,0,1,5.031,3.679,9.951,9.951,0,0,1,.12,2.618v1.489Zm7.169-5.236a2.846,2.846,0,0,0-1.711-.463,1.075,1.075,0,0,1-.274.034,3.591,3.591,0,0,0-.53.154,2.634,2.634,0,0,0-1.625,2.328H160.3a1.08,1.08,0,0,1,.239-0.086c0.24-.1.5-0.169,0.753-0.274,0.806-.332,1.676-0.59,2.481-0.924,0.236-.1.479-0.165,0.7-0.257a1.284,1.284,0,0,0,.377-0.136C164.692,147.267,164.573,147.1,164.419,146.992Zm1.592,2.258c-0.229.095-.454,0.127-0.684,0.222-0.745.308-1.549,0.549-2.294,0.856-0.484.2-.984,0.337-1.454,0.531a1.822,1.822,0,0,0-.514.188h0.018a1.315,1.315,0,0,0,.41.325,2.645,2.645,0,0,0,2.054.359,2.616,2.616,0,0,0,1.557-1.112c0.45,0.244.93,0.481,1.386,0.719a1,1,0,0,1,.479.308,1.389,1.389,0,0,0-.2.308c-0.122.174-.3,0.313-0.428,0.479a0.727,0.727,0,0,1-.119.154c-0.248.188-.471,0.414-0.737,0.582a6.008,6.008,0,0,1-1.762.685l-0.411.034a2.147,2.147,0,0,1-.462.017,4.907,4.907,0,0,1-1.814-.394,4.606,4.606,0,0,1-2.652-2.961,4.506,4.506,0,0,1-.154-2.207,7.973,7.973,0,0,1,.393-1.232,4.809,4.809,0,0,1,2.516-2.361,7.033,7.033,0,0,1,.975-0.275,1.653,1.653,0,0,0,.411-0.05,4.658,4.658,0,0,1,1.078.033,7.958,7.958,0,0,1,1.318.394,4.794,4.794,0,0,1,2.721,3.8,2.722,2.722,0,0,0-.5.189C166.764,149,166.374,149.1,166.011,149.25Zm10.045,3.867a4.82,4.82,0,0,1-3.936.617,4.732,4.732,0,0,1-3.2-3.166,4.51,4.51,0,0,1-.155-2.259,6.559,6.559,0,0,1,.274-0.941,4.854,4.854,0,0,1,2.4-2.516,7.811,7.811,0,0,1,1.026-.342,3.722,3.722,0,0,0,.6-0.085,5,5,0,0,1,2.927.718c0.255,0.161.463,0.393,0.719,0.548v0.017h-0.018q-0.735.744-1.471,1.489a2.384,2.384,0,0,1-.274-0.205,2.9,2.9,0,0,0-.736-0.36,2.682,2.682,0,0,0-3.234,1.591,3.722,3.722,0,0,0-.171.924,2.246,2.246,0,0,0,.205.993,2.655,2.655,0,0,0,1.8,1.591,2.628,2.628,0,0,0,2-.325,1.372,1.372,0,0,0,.428-0.308h0.017v0.017l1.489,1.472V152.6h-0.017A2.539,2.539,0,0,1,176.056,153.117Zm6.571-7.05a0.714,0.714,0,0,1-.359.462,1.171,1.171,0,0,0-.53,0l-0.325.017a2.4,2.4,0,0,0-.942.376c-0.6.44-.581,1.31-0.581,2.362v4.672a2.669,2.669,0,0,1-.685.017H177.75v-4.364a8.982,8.982,0,0,1,.138-2.412,3.709,3.709,0,0,1,2.155-2.5,5.73,5.73,0,0,1,.873-0.24l0.445-.033a2.776,2.776,0,0,1,.77-0.018c0.226,0.049.516,0,.753,0.051a4.05,4.05,0,0,0,.667.052v0.017a2.58,2.58,0,0,0-.256.445C183.072,145.33,182.848,145.708,182.627,146.067Zm6.794,0.958a2.887,2.887,0,0,0-1.762-.5,1.052,1.052,0,0,1-.257.034,3.814,3.814,0,0,0-.582.172,2.645,2.645,0,0,0-1.591,2.31h0.017a1.328,1.328,0,0,1,.291-0.1c0.24-.1.5-0.169,0.753-0.274,0.789-.325,1.641-0.582,2.43-0.907,0.253-.1.513-0.175,0.752-0.274a1.1,1.1,0,0,0,.326-0.119C189.658,147.277,189.558,147.122,189.421,147.025Zm1.4,2.277c-0.229.094-.456,0.127-0.685,0.222-0.744.307-1.549,0.549-2.293,0.856-0.422.173-.858,0.294-1.267,0.462a2.017,2.017,0,0,0-.564.2h0.017a1.355,1.355,0,0,0,.445.342,2.667,2.667,0,0,0,2.019.342,2.582,2.582,0,0,0,1.557-1.112c0.453,0.246.938,0.475,1.387,0.719a0.984,0.984,0,0,1,.479.308,1.915,1.915,0,0,0-.189.291c-0.112.161-.257,0.3-0.376,0.462a1.456,1.456,0,0,1-.291.256c-0.228.173-.434,0.39-0.684,0.548a5.9,5.9,0,0,1-1.815.668l-0.307.017a4.1,4.1,0,0,1-1.968-.257,5.045,5.045,0,0,1-.736-0.308,4.858,4.858,0,0,1-2.242-2.841,4.126,4.126,0,0,1-.188-1.4c0-.16.011-0.319,0.017-0.479a6.6,6.6,0,0,1,.223-0.976,4.864,4.864,0,0,1,2.566-2.806,6.724,6.724,0,0,1,.959-0.308l0.582-.085a5.012,5.012,0,0,1,1.283.068,4.86,4.86,0,0,1,3.166,2.224,4.3,4.3,0,0,1,.667,1.934,4.033,4.033,0,0,0-.633.24C191.577,149.047,191.187,149.152,190.825,149.3Zm15.093,1.779a4.208,4.208,0,0,1-.616,1.437,2.229,2.229,0,0,1-.411.514,4.51,4.51,0,0,1-1.506.822c-0.2.06-.389,0.037-0.616,0.085a1.392,1.392,0,0,1-.462.017h-0.291c-0.133-.03-0.289-0.03-0.428-0.068a3.768,3.768,0,0,1-1.2-.565,1.964,1.964,0,0,1-.531-0.445,0.04,0.04,0,0,0-.017.017l-0.394.359a3.5,3.5,0,0,1-3.645.394,3.5,3.5,0,0,1-2-2.481,9.42,9.42,0,0,1-.085-2.225v-4.227h2.122a2.276,2.276,0,0,1,.017.565v5.253c0.028,0.126.057,0.252,0.085,0.377a1.43,1.43,0,0,0,.428.633,1.6,1.6,0,0,0,2.19-.342,4.51,4.51,0,0,0,.24-2.1v-4.381h2.122v4.415a4.657,4.657,0,0,0,.188,2,1.461,1.461,0,0,0,1.147.7,1.525,1.525,0,0,0,1.317-.547,3.991,3.991,0,0,0,.291-2.157v-4.415h2.123v4.022A11.8,11.8,0,0,1,205.918,151.081Z"/>
</svg>
