<svg xmlns="http://www.w3.org/2000/svg" viewBox="0 0 111.09 111.09">
    <defs>
        <style>.cls-1{fill:#939598;}.cls-2{fill:#da1c5c;}.cls-3,.cls-7{fill:none;}.cls-3{stroke:#1b75bc;stroke-miterlimit:10;stroke-width:6px;}.cls-4{fill:#f7941d;}.cls-5{fill:#1b75bc;}.cls-6{fill:#009444;}</style>
    </defs>
    <title>pluginIcon_dark</title>
    <g id="Layer_2" data-name="Layer 2">
        <g id="Layer_1-2" data-name="Layer 1">
            <path class="cls-1" d="M24.76,79.67l-3.51,18H6.39L23.48,18.81H41.85L57.19,97.7H42.32l-3.39-18ZM37.52,67.73,35,51.23c-.82-4.8-1.87-12.76-2.58-17.91H32c-.82,5.27-2,13.35-2.81,17.91l-2.92,16.5Z"/>
            <path class="cls-2" d="M103.88,84.59a91,91,0,0,0,.82,13.11H91l-.82-5.62h-.35a15.07,15.07,0,0,1-12.64,6.55c-8.66,0-15.1-7.25-15.1-17.32,0-15.1,13.23-21.18,26.22-21.3V58.72c0-4.56-2.57-7.84-8.07-7.84a21.85,21.85,0,0,0-11.71,3.39L65.72,43.86a39.24,39.24,0,0,1,17.91-4.33c17.44,0,20.25,12.17,20.25,23.87ZM88.78,69.84c-5,.12-12.17,1.87-12.17,9.83,0,5.62,3.16,7.73,5.5,7.73a6.56,6.56,0,0,0,6.32-4.92,9.54,9.54,0,0,0,.35-2.69Z"/>
            <line class="cls-3" x1="62.09" y1="26.12" x2="31.9" y2="58.39"/>
            <line class="cls-3" x1="31.9" y1="58.39" x2="83.66" y2="78.39"/>
            <circle class="cls-4" cx="31.9" cy="58.39" r="11.45"/>
            <circle class="cls-5" cx="83.66" cy="78.39" r="10.73"/>
            <circle class="cls-6" cx="62.28" cy="26.03" r="15.86"/>
            <rect class="cls-7" width="111.09" height="111.09"/>
        </g>
    </g>
</svg>
