<svg id="Layer_1" data-name="Layer 1" xmlns="http://www.w3.org/2000/svg" viewBox="0 0 40 40"><defs><style>.cls-1{fill:#fff;}</style></defs><path class="cls-1" d="M7.2,28.08a4.48,4.48,0,0,1-1.34-.2,3,3,0,0,1-1.09-.59,2.69,2.69,0,0,1-.74-1A3.05,3.05,0,0,1,3.76,25v0a3.16,3.16,0,0,1,.3-1.42,2.57,2.57,0,0,1,.83-1A3.72,3.72,0,0,1,6.16,22a6.42,6.42,0,0,1,1.64-.19,6.55,6.55,0,0,1,1.33.11,7.41,7.41,0,0,1,1.12.3V22a1.7,1.7,0,0,0-.55-1.37,2.39,2.39,0,0,0-1.6-.46,6.25,6.25,0,0,0-1.45.14,8.51,8.51,0,0,0-1.32.4l-.71-2.17A10.86,10.86,0,0,1,6.34,18a9,9,0,0,1,2.17-.23,6,6,0,0,1,2,.3,3.55,3.55,0,0,1,1.37.83,3.35,3.35,0,0,1,.83,1.37A6.08,6.08,0,0,1,13,22.08v5.81H10.23V26.81A4,4,0,0,1,9,27.73,4.07,4.07,0,0,1,7.2,28.08Zm.86-2a2.56,2.56,0,0,0,1.62-.49,1.55,1.55,0,0,0,.6-1.27v-.51a4.49,4.49,0,0,0-.83-.27,4.34,4.34,0,0,0-1-.1A2.6,2.6,0,0,0,7,23.83a1.17,1.17,0,0,0-.52,1v0a1,1,0,0,0,.43.9A1.84,1.84,0,0,0,8.06,26.12Z"/><polygon class="cls-1" points="14.44 25.59 14.44 25.05 14.95 25.05 14.98 25.56 14.44 25.59"/><path class="cls-1" d="M21.46,25.56h-.52l-.05-.51h.57Zm-1.08,0h-.52l-.05-.51h.57Zm-1.08,0h-.52l-.05-.51h.57Zm-1.08,0H17.7l-.05-.51h.57Zm-1.08,0h-.52l-.05-.51h.57Zm-1.08,0h-.52l0-.51h.57Z"/><polygon class="cls-1" points="21.99 25.59 21.99 25.56 21.97 25.05 22.51 25.05 22.51 25.56 21.99 25.59"/><rect class="cls-1" x="21.99" y="26.13" width="0.52" height="0.57"/><polygon class="cls-1" points="22.51 27.79 21.99 27.79 21.97 27.27 22.51 27.24 22.51 27.79"/><path class="cls-1" d="M21.46,27.79h-.57v-.52h.52Zm-1.08,0h-.57v-.52h.52Zm-1.08,0h-.57v-.52h.52Zm-1.08,0h-.57v-.52h.52Zm-1.08,0h-.57v-.52h.52Zm-1.08,0h-.57v-.52H16Z"/><polygon class="cls-1" points="14.98 27.79 14.44 27.79 14.44 27.27 14.95 27.24 14.98 27.79"/><rect class="cls-1" x="14.44" y="26.13" width="0.52" height="0.57"/><path class="cls-1" d="M29.19,14.71h2.66l5.61,13.18h-3L33.25,25H27.71l-1.19,2.93H23.58Zm3,7.7-1.74-4.24-1.74,4.24Z"/><rect class="cls-1" x="27.72" y="11.92" width="5.6" height="1.4"/></svg>