<svg xmlns="http://www.w3.org/2000/svg" xmlns:xlink="http://www.w3.org/1999/xlink" version="1.1" width="321" height="304" style="shape-rendering:geometricPrecision; text-rendering:geometricPrecision; image-rendering:optimizeQuality; fill-rule:evenodd; clip-rule:evenodd"><rect id="backgroundrect" width="100%" height="100%" x="0" y="0" fill="none" stroke="none"/>































<g class="currentLayer" style=""><title>Layer 1</title><g id="svg_1" class=""><path style="opacity:0" fill="transparent" d="M -0.5,-0.5 C 106.5,-0.5 213.5,-0.5 320.5,-0.5C 320.5,26.1667 320.5,52.8333 320.5,79.5C 315.167,79.5 309.833,79.5 304.5,79.5C 304.5,74.1667 304.5,68.8333 304.5,63.5C 299.167,63.5 293.833,63.5 288.5,63.5C 288.5,68.8333 288.5,74.1667 288.5,79.5C 283.167,79.5 277.833,79.5 272.5,79.5C 272.5,84.8333 272.5,90.1667 272.5,95.5C 245.833,95.5 219.167,95.5 192.5,95.5C 192.5,90.1667 192.5,84.8333 192.5,79.5C 187.167,79.5 181.833,79.5 176.5,79.5C 176.5,74.1667 176.5,68.8333 176.5,63.5C 171.167,63.5 165.833,63.5 160.5,63.5C 160.5,68.8333 160.5,74.1667 160.5,79.5C 155.167,79.5 149.833,79.5 144.5,79.5C 144.5,122.167 144.5,164.833 144.5,207.5C 128.5,207.5 112.5,207.5 96.5,207.5C 96.5,202.167 96.5,196.833 96.5,191.5C 91.1667,191.5 85.8333,191.5 80.5,191.5C 80.5,186.167 80.5,180.833 80.5,175.5C 75.1667,175.5 69.8333,175.5 64.5,175.5C 64.5,170.167 64.5,164.833 64.5,159.5C 53.8333,159.5 43.1667,159.5 32.5,159.5C 32.5,154.167 32.5,148.833 32.5,143.5C 21.8333,143.5 11.1667,143.5 0.5,143.5C 0.5,154.167 0.5,164.833 0.5,175.5C 5.83333,175.5 11.1667,175.5 16.5,175.5C 16.5,180.833 16.5,186.167 16.5,191.5C 21.8333,191.5 27.1667,191.5 32.5,191.5C 32.5,196.833 32.5,202.167 32.5,207.5C 43.1667,207.5 53.8333,207.5 64.5,207.5C 64.5,212.833 64.5,218.167 64.5,223.5C 69.8333,223.5 75.1667,223.5 80.5,223.5C 80.5,250.167 80.5,276.833 80.5,303.5C 53.5,303.5 26.5,303.5 -0.5,303.5C -0.5,202.167 -0.5,100.833 -0.5,-0.5 Z" id="svg_2"/></g><g id="svg_3"><path style="opacity:1" fill="#000000" d="M 176.5,79.5 C 171.167,79.5 165.833,79.5 160.5,79.5C 160.5,74.1667 160.5,68.8333 160.5,63.5C 165.833,63.5 171.167,63.5 176.5,63.5C 176.5,68.8333 176.5,74.1667 176.5,79.5 Z" id="svg_4"/></g><g id="svg_5"><path style="opacity:1" fill="#000000" d="M 304.5,79.5 C 299.167,79.5 293.833,79.5 288.5,79.5C 288.5,74.1667 288.5,68.8333 288.5,63.5C 293.833,63.5 299.167,63.5 304.5,63.5C 304.5,68.8333 304.5,74.1667 304.5,79.5 Z" id="svg_6"/></g><g id="svg_7"><path style="opacity:1" fill="#000000" d="M 160.5,79.5 C 160.5,84.8333 160.5,90.1667 160.5,95.5C 160.5,100.833 160.5,106.167 160.5,111.5C 160.5,143.5 160.5,175.5 160.5,207.5C 165.833,207.5 171.167,207.5 176.5,207.5C 176.5,212.833 176.5,218.167 176.5,223.5C 160.5,223.5 144.5,223.5 128.5,223.5C 123.167,223.5 117.833,223.5 112.5,223.5C 107.167,223.5 101.833,223.5 96.5,223.5C 96.5,218.167 96.5,212.833 96.5,207.5C 112.5,207.5 128.5,207.5 144.5,207.5C 144.5,164.833 144.5,122.167 144.5,79.5C 149.833,79.5 155.167,79.5 160.5,79.5 Z" id="svg_8"/></g><g id="svg_9" class=""><path style="opacity:1" fill="#744488" d="M160.5,79.5 C165.833,79.5 171.167,79.5 176.5,79.5 C176.5,84.8333 176.5,90.1667 176.5,95.5 C171.167,95.5 165.833,95.5 160.5,95.5 C160.5,90.1667 160.5,84.8333 160.5,79.5 M288.5,79.5 C293.833,79.5 299.167,79.5 304.5,79.5 C304.5,84.8333 304.5,90.1667 304.5,95.5 C299.167,95.5 293.833,95.5 288.5,95.5 C288.5,90.1667 288.5,84.8333 288.5,79.5 M32.5,159.5 C32.5,164.833 32.5,170.167 32.5,175.5 C27.1667,175.5 21.8333,175.5 16.5,175.5 C16.5,170.167 16.5,164.833 16.5,159.5 C21.8333,159.5 27.1667,159.5 32.5,159.5 M48.5,175.5 C53.8333,175.5 59.1667,175.5 64.5,175.5 C64.5,180.833 64.5,186.167 64.5,191.5 C59.1667,191.5 53.8333,191.5 48.5,191.5 C48.5,186.167 48.5,180.833 48.5,175.5 M32.5,175.5 C37.8333,175.5 43.1667,175.5 48.5,175.5 C48.5,180.833 48.5,186.167 48.5,191.5 C43.1667,191.5 37.8333,191.5 32.5,191.5 C32.5,186.167 32.5,180.833 32.5,175.5 M64.5,191.5 C69.8333,191.5 75.1667,191.5 80.5,191.5 C80.5,196.833 80.5,202.167 80.5,207.5 C75.1667,207.5 69.8333,207.5 64.5,207.5 C64.5,202.167 64.5,196.833 64.5,191.5 M224.5,207.5 C229.833,207.5 235.167,207.5 240.5,207.5 C240.5,212.833 240.5,218.167 240.5,223.5 C235.167,223.5 229.833,223.5 224.5,223.5 C224.5,218.167 224.5,212.833 224.5,207.5 M80.5,207.5 C85.8333,207.5 91.1667,207.5 96.5,207.5 C96.5,212.833 96.5,218.167 96.5,223.5 C91.1667,223.5 85.8333,223.5 80.5,223.5 C80.5,218.167 80.5,212.833 80.5,207.5 M96.5,223.5 C101.833,223.5 107.167,223.5 112.5,223.5 C112.5,228.833 112.5,234.167 112.5,239.5 C117.833,239.5 123.167,239.5 128.5,239.5 C128.5,234.167 128.5,228.833 128.5,223.5 C144.5,223.5 160.5,223.5 176.5,223.5 C176.5,228.833 176.5,234.167 176.5,239.5 C171.167,239.5 165.833,239.5 160.5,239.5 C160.5,244.833 160.5,250.167 160.5,255.5 C187.167,255.5 213.833,255.5 240.5,255.5 C240.5,266.167 240.5,276.833 240.5,287.5 C235.167,287.5 229.833,287.5 224.5,287.5 C224.5,282.167 224.5,276.833 224.5,271.5 C203.167,271.5 181.833,271.5 160.5,271.5 C160.5,276.833 160.5,282.167 160.5,287.5 C155.167,287.5 149.833,287.5 144.5,287.5 C144.5,282.167 144.5,276.833 144.5,271.5 C133.833,271.5 123.167,271.5 112.5,271.5 C112.5,276.833 112.5,282.167 112.5,287.5 C107.167,287.5 101.833,287.5 96.5,287.5 C96.5,266.167 96.5,244.833 96.5,223.5 M160.5,111.5 C165.833,111.5 171.167,111.5 176.5,111.5 C213.833,111.5 251.167,111.5 288.5,111.5 C293.833,111.5 299.167,111.5 304.5,111.5 C304.5,138.167 304.5,164.833 304.5,191.5 C299.167,191.5 293.833,191.5 288.5,191.5 C288.5,196.833 288.5,202.167 288.5,207.5 C288.5,212.833 288.5,218.167 288.5,223.5 C277.833,223.5 267.167,223.5 256.5,223.5 C256.5,228.833 256.5,234.167 256.5,239.5 C251.167,239.5 245.833,239.5 240.5,239.5 C240.5,244.833 240.5,250.167 240.5,255.5 C213.833,255.5 187.167,255.5 160.5,255.5 C160.5,250.167 160.5,244.833 160.5,239.5 C165.833,239.5 171.167,239.5 176.5,239.5 C181.833,239.5 187.167,239.5 192.5,239.5 C192.5,234.167 192.5,228.833 192.5,223.5 C187.167,223.5 181.833,223.5 176.5,223.5 C176.5,218.167 176.5,212.833 176.5,207.5 C171.167,207.5 165.833,207.5 160.5,207.5 C160.5,175.5 160.5,143.5 160.5,111.5 M112.5,223.5 C117.833,223.5 123.167,223.5 128.5,223.5 C128.5,228.833 128.5,234.167 128.5,239.5 C123.167,239.5 117.833,239.5 112.5,239.5 C112.5,234.167 112.5,228.833 112.5,223.5 z" id="svg_10"/></g><g class="" id="svg_73"><path style="opacity:1" fill="#744488" d="M240.87235599334724,196.8404369354248 C240.18721369997303,196.8404369354248 239.50194293438915,196.8404369354248 238.81680064101494,196.8404369354248 C238.81680064101494,198.3412458078742 238.81680064101494,199.84208282066584 238.81680064101494,201.34289169311523 C239.50194293438915,201.34289169311523 240.18721369997303,201.34289169311523 240.87235599334724,201.34289169311523 C240.87235599334724,199.84208282066584 240.87235599334724,198.3412458078742 240.87235599334724,196.8404369354248 M224.42791317468857,196.8404369354248 C223.74277088131436,196.8404369354248 223.05750011573053,196.8404369354248 222.37235782235626,196.8404369354248 C222.37235782235626,198.3412458078742 222.37235782235626,199.84208282066584 222.37235782235626,201.34289169311523 C223.05750011573053,201.34289169311523 223.74277088131436,201.34289169311523 224.42791317468857,201.34289169311523 C224.42791317468857,199.84208282066584 224.42791317468857,198.3412458078742 224.42791317468857,196.8404369354248 M257.31679881200597,219.35271072387695 C257.31679881200597,220.85343517529964 257.31679881200597,222.3544410301447 257.31679881200597,223.85516548156738 C258.0019796470431,223.85516548156738 258.6871733293011,223.85516548156738 259.3723541643382,223.85516548156738 C259.3723541643382,222.3544410301447 259.3723541643382,220.85343517529964 259.3723541643382,219.35271072387695 C258.6871733293011,219.35271072387695 258.0019796470431,219.35271072387695 257.31679881200597,219.35271072387695 M255.2612434596736,223.85516548156738 C254.5760626246365,223.85516548156738 253.8908689423784,223.85516548156738 253.20568810734125,223.85516548156738 C253.20568810734125,225.35588993299007 253.20568810734125,226.85689578783513 253.20568810734125,228.3576202392578 C253.8908689423784,228.3576202392578 254.5760626246365,228.3576202392578 255.2612434596736,228.3576202392578 C255.2612434596736,226.85689578783513 255.2612434596736,225.35588993299007 255.2612434596736,223.85516548156738 M257.31679881200597,223.85516548156738 C256.63161797696876,223.85516548156738 255.9464242947107,223.85516548156738 255.2612434596736,223.85516548156738 C255.2612434596736,225.35588993299007 255.2612434596736,226.85689578783513 255.2612434596736,228.3576202392578 C255.9464242947107,228.3576202392578 256.63161797696876,228.3576202392578 257.31679881200597,228.3576202392578 C257.31679881200597,226.85689578783513 257.31679881200597,225.35588993299007 257.31679881200597,223.85516548156738 M253.20568810734125,228.3576202392578 C252.52050727230414,228.3576202392578 251.83531359004604,228.3576202392578 251.15013275500894,228.3576202392578 C251.15013275500894,229.8583446906805 251.15013275500894,231.35935054552556 251.15013275500894,232.86007499694824 C251.83531359004604,232.86007499694824 252.52050727230414,232.86007499694824 253.20568810734125,232.86007499694824 C253.20568810734125,231.35935054552556 253.20568810734125,229.8583446906805 253.20568810734125,228.3576202392578 M232.65013458401796,232.86007499694824 C231.96499229064364,232.86007499694824 231.27972152505987,232.86007499694824 230.5945792316856,232.86007499694824 C230.5945792316856,234.36079944837093 230.5945792316856,235.861805303216 230.5945792316856,237.36252975463867 C231.27972152505987,237.36252975463867 231.96499229064364,237.36252975463867 232.65013458401796,237.36252975463867 C232.65013458401796,235.861805303216 232.65013458401796,234.36079944837093 232.65013458401796,232.86007499694824 M251.15013275500894,232.86007499694824 C250.46495191997178,232.86007499694824 249.77975823771368,232.86007499694824 249.09457740267658,232.86007499694824 C249.09457740267658,234.36079944837093 249.09457740267658,235.861805303216 249.09457740267658,237.36252975463867 C249.77975823771368,237.36252975463867 250.46495191997178,237.36252975463867 251.15013275500894,237.36252975463867 C251.15013275500894,235.861805303216 251.15013275500894,234.36079944837093 251.15013275500894,232.86007499694824 M249.09457740267658,237.36252975463867 C248.40943510930236,237.36252975463867 247.72416434371854,237.36252975463867 247.03902205034422,237.36252975463867 C247.03902205034422,238.86325420606136 247.03902205034422,240.36426006090642 247.03902205034422,241.8649845123291 C246.35387975697,241.8649845123291 245.66860899138618,241.8649845123291 244.98346669801197,241.8649845123291 C244.98346669801197,240.36426006090642 244.98346669801197,238.86325420606136 244.98346669801197,237.36252975463867 C242.9279113456796,237.36252975463867 240.87235599334724,237.36252975463867 238.81680064101494,237.36252975463867 C238.81680064101494,238.86325420606136 238.81680064101494,240.36426006090642 238.81680064101494,241.8649845123291 C239.50194293438915,241.8649845123291 240.18721369997303,241.8649845123291 240.87235599334724,241.8649845123291 C240.87235599334724,243.36570896375179 240.87235599334724,244.86671481859685 240.87235599334724,246.36743927001953 C237.4463875820568,246.36743927001953 234.020547642976,246.36743927001953 230.5945792316856,246.36743927001953 C230.5945792316856,249.36916957628728 230.5945792316856,252.37061847913265 230.5945792316856,255.3723487854004 C231.27972152505987,255.3723487854004 231.96499229064364,255.3723487854004 232.65013458401796,255.3723487854004 C232.65013458401796,253.8716243339777 232.65013458401796,252.37061847913265 232.65013458401796,250.86989402770996 C235.39083222972454,250.86989402770996 238.13165834764067,250.86989402770996 240.87235599334724,250.86989402770996 C240.87235599334724,252.37061847913265 240.87235599334724,253.8716243339777 240.87235599334724,255.3723487854004 C241.5574982867215,255.3723487854004 242.24276905230528,255.3723487854004 242.9279113456796,255.3723487854004 C242.9279113456796,253.8716243339777 242.9279113456796,252.37061847913265 242.9279113456796,250.86989402770996 C244.29832440463764,250.86989402770996 245.66860899138618,250.86989402770996 247.03902205034422,250.86989402770996 C247.03902205034422,252.37061847913265 247.03902205034422,253.8716243339777 247.03902205034422,255.3723487854004 C247.72416434371854,255.3723487854004 248.40943510930236,255.3723487854004 249.09457740267658,255.3723487854004 C249.09457740267658,249.36916957628728 249.09457740267658,243.36570896375179 249.09457740267658,237.36252975463867 M240.87235599334724,205.84534645080566 C240.18721369997303,205.84534645080566 239.50194293438915,205.84534645080566 238.81680064101494,205.84534645080566 C234.020547642976,205.84534645080566 229.2241661727275,205.84534645080566 224.42791317468857,205.84534645080566 C223.74277088131436,205.84534645080566 223.05750011573053,205.84534645080566 222.37235782235626,205.84534645080566 C222.37235782235626,213.34953151476384 222.37235782235626,220.85343517529964 222.37235782235626,228.3576202392578 C223.05750011573053,228.3576202392578 223.74277088131436,228.3576202392578 224.42791317468857,228.3576202392578 C224.42791317468857,229.8583446906805 224.42791317468857,231.35935054552556 224.42791317468857,232.86007499694824 C224.42791317468857,234.36079944837093 224.42791317468857,235.861805303216 224.42791317468857,237.36252975463867 C225.79832623364672,237.36252975463867 227.16861082039514,237.36252975463867 228.5390238793533,237.36252975463867 C228.5390238793533,238.86325420606136 228.5390238793533,240.36426006090642 228.5390238793533,241.8649845123291 C229.2241661727275,241.8649845123291 229.90943693831133,241.8649845123291 230.5945792316856,241.8649845123291 C230.5945792316856,243.36570896375179 230.5945792316856,244.86671481859685 230.5945792316856,246.36743927001953 C234.020547642976,246.36743927001953 237.4463875820568,246.36743927001953 240.87235599334724,246.36743927001953 C240.87235599334724,244.86671481859685 240.87235599334724,243.36570896375179 240.87235599334724,241.8649845123291 C240.18721369997303,241.8649845123291 239.50194293438915,241.8649845123291 238.81680064101494,241.8649845123291 C238.13165834764067,241.8649845123291 237.4463875820568,241.8649845123291 236.76124528868257,241.8649845123291 C236.76124528868257,240.36426006090642 236.76124528868257,238.86325420606136 236.76124528868257,237.36252975463867 C237.4463875820568,237.36252975463867 238.13165834764067,237.36252975463867 238.81680064101494,237.36252975463867 C238.81680064101494,235.861805303216 238.81680064101494,234.36079944837093 238.81680064101494,232.86007499694824 C239.50194293438915,232.86007499694824 240.18721369997303,232.86007499694824 240.87235599334724,232.86007499694824 C240.87235599334724,223.85516548156738 240.87235599334724,214.85025596618652 240.87235599334724,205.84534645080566 M247.03902205034422,237.36252975463867 C246.35387975697,237.36252975463867 245.66860899138618,237.36252975463867 244.98346669801197,237.36252975463867 C244.98346669801197,238.86325420606136 244.98346669801197,240.36426006090642 244.98346669801197,241.8649845123291 C245.66860899138618,241.8649845123291 246.35387975697,241.8649845123291 247.03902205034422,241.8649845123291 C247.03902205034422,240.36426006090642 247.03902205034422,238.86325420606136 247.03902205034422,237.36252975463867 z" id="svg_74"/></g><g id="svg_11"><path style="opacity:1" fill="#000000" d="M 176.5,79.5 C 181.833,79.5 187.167,79.5 192.5,79.5C 192.5,84.8333 192.5,90.1667 192.5,95.5C 219.167,95.5 245.833,95.5 272.5,95.5C 272.5,90.1667 272.5,84.8333 272.5,79.5C 277.833,79.5 283.167,79.5 288.5,79.5C 288.5,84.8333 288.5,90.1667 288.5,95.5C 288.5,100.833 288.5,106.167 288.5,111.5C 251.167,111.5 213.833,111.5 176.5,111.5C 176.5,106.167 176.5,100.833 176.5,95.5C 176.5,90.1667 176.5,84.8333 176.5,79.5 Z" id="svg_12"/></g><g id="svg_13"><path style="opacity:1" fill="#000000" d="M 304.5,79.5 C 309.833,79.5 315.167,79.5 320.5,79.5C 320.5,122.167 320.5,164.833 320.5,207.5C 315.167,207.5 309.833,207.5 304.5,207.5C 304.5,202.167 304.5,196.833 304.5,191.5C 304.5,164.833 304.5,138.167 304.5,111.5C 304.5,106.167 304.5,100.833 304.5,95.5C 304.5,90.1667 304.5,84.8333 304.5,79.5 Z" id="svg_14"/></g><g id="svg_15"><path style="opacity:1" fill="#d65864" d="M 160.5,95.5 C 165.833,95.5 171.167,95.5 176.5,95.5C 176.5,100.833 176.5,106.167 176.5,111.5C 171.167,111.5 165.833,111.5 160.5,111.5C 160.5,106.167 160.5,100.833 160.5,95.5 Z" id="svg_16"/></g><g id="svg_17"><path style="opacity:1" fill="#d65864" d="M 288.5,95.5 C 293.833,95.5 299.167,95.5 304.5,95.5C 304.5,100.833 304.5,106.167 304.5,111.5C 299.167,111.5 293.833,111.5 288.5,111.5C 288.5,106.167 288.5,100.833 288.5,95.5 Z" id="svg_18"/></g><g id="svg_19"><path style="opacity:1" fill="#000000" d="M 32.5,159.5 C 27.1667,159.5 21.8333,159.5 16.5,159.5C 16.5,164.833 16.5,170.167 16.5,175.5C 11.1667,175.5 5.83333,175.5 0.5,175.5C 0.5,164.833 0.5,154.167 0.5,143.5C 11.1667,143.5 21.8333,143.5 32.5,143.5C 32.5,148.833 32.5,154.167 32.5,159.5 Z" id="svg_20"/></g><g id="svg_21"><path style="opacity:1" fill="#000000" d="M 32.5,159.5 C 43.1667,159.5 53.8333,159.5 64.5,159.5C 64.5,164.833 64.5,170.167 64.5,175.5C 59.1667,175.5 53.8333,175.5 48.5,175.5C 43.1667,175.5 37.8333,175.5 32.5,175.5C 32.5,170.167 32.5,164.833 32.5,159.5 Z" id="svg_22"/></g><g id="svg_23"><path style="opacity:1" fill="#000000" d="M 192.5,191.5 C 192.5,180.833 192.5,170.167 192.5,159.5C 197.833,159.5 203.167,159.5 208.5,159.5C 208.5,170.167 208.5,180.833 208.5,191.5C 203.167,191.5 197.833,191.5 192.5,191.5 Z" id="svg_24"/></g><g id="svg_25"><path style="opacity:1" fill="#000000" d="M 288.5,191.5 C 283.167,191.5 277.833,191.5 272.5,191.5C 272.5,180.833 272.5,170.167 272.5,159.5C 277.833,159.5 283.167,159.5 288.5,159.5C 288.5,170.167 288.5,180.833 288.5,191.5 Z" id="svg_26"/></g><g id="svg_27"><path style="opacity:1" fill="#000000" d="M 16.5,175.5 C 21.8333,175.5 27.1667,175.5 32.5,175.5C 32.5,180.833 32.5,186.167 32.5,191.5C 27.1667,191.5 21.8333,191.5 16.5,191.5C 16.5,186.167 16.5,180.833 16.5,175.5 Z" id="svg_28"/></g><g id="svg_29"><path style="opacity:1" fill="#000000" d="M 64.5,175.5 C 69.8333,175.5 75.1667,175.5 80.5,175.5C 80.5,180.833 80.5,186.167 80.5,191.5C 75.1667,191.5 69.8333,191.5 64.5,191.5C 64.5,186.167 64.5,180.833 64.5,175.5 Z" id="svg_30"/></g><g id="svg_31"><path style="opacity:1" fill="#000000" d="M 32.5,191.5 C 37.8333,191.5 43.1667,191.5 48.5,191.5C 53.8333,191.5 59.1667,191.5 64.5,191.5C 64.5,196.833 64.5,202.167 64.5,207.5C 53.8333,207.5 43.1667,207.5 32.5,207.5C 32.5,202.167 32.5,196.833 32.5,191.5 Z" id="svg_32"/></g><g id="svg_33"><path style="opacity:1" fill="#000000" d="M 80.5,191.5 C 85.8333,191.5 91.1667,191.5 96.5,191.5C 96.5,196.833 96.5,202.167 96.5,207.5C 91.1667,207.5 85.8333,207.5 80.5,207.5C 80.5,202.167 80.5,196.833 80.5,191.5 Z" id="svg_34"/></g><g id="svg_35"><path style="opacity:1" fill="#d65864" d="M 192.5,191.5 C 192.5,196.833 192.5,202.167 192.5,207.5C 187.167,207.5 181.833,207.5 176.5,207.5C 176.5,202.167 176.5,196.833 176.5,191.5C 181.833,191.5 187.167,191.5 192.5,191.5 Z" id="svg_36"/></g><g id="svg_37"><path style="opacity:1" fill="#000000" d="M 240.5,207.5 C 235.167,207.5 229.833,207.5 224.5,207.5C 224.5,202.167 224.5,196.833 224.5,191.5C 235.167,191.5 245.833,191.5 256.5,191.5C 256.5,196.833 256.5,202.167 256.5,207.5C 251.167,207.5 245.833,207.5 240.5,207.5 Z" id="svg_38"/></g><g id="svg_39"><path style="opacity:1" fill="#d65864" d="M 288.5,191.5 C 293.833,191.5 299.167,191.5 304.5,191.5C 304.5,196.833 304.5,202.167 304.5,207.5C 299.167,207.5 293.833,207.5 288.5,207.5C 288.5,202.167 288.5,196.833 288.5,191.5 Z" id="svg_40"/></g><g id="svg_41"><path style="opacity:1" fill="#000000" d="M 64.5,207.5 C 69.8333,207.5 75.1667,207.5 80.5,207.5C 80.5,212.833 80.5,218.167 80.5,223.5C 75.1667,223.5 69.8333,223.5 64.5,223.5C 64.5,218.167 64.5,212.833 64.5,207.5 Z" id="svg_42"/></g><g id="svg_43"><path style="opacity:1" fill="#000000" d="M 288.5,207.5 C 293.833,207.5 299.167,207.5 304.5,207.5C 304.5,212.833 304.5,218.167 304.5,223.5C 299.167,223.5 293.833,223.5 288.5,223.5C 288.5,218.167 288.5,212.833 288.5,207.5 Z" id="svg_44"/></g><g id="svg_45"><path style="opacity:0" fill="transparent" d="M 304.5,207.5 C 309.833,207.5 315.167,207.5 320.5,207.5C 320.5,239.5 320.5,271.5 320.5,303.5C 299.167,303.5 277.833,303.5 256.5,303.5C 256.5,282.167 256.5,260.833 256.5,239.5C 267.167,239.5 277.833,239.5 288.5,239.5C 288.5,234.167 288.5,228.833 288.5,223.5C 293.833,223.5 299.167,223.5 304.5,223.5C 304.5,218.167 304.5,212.833 304.5,207.5 Z" id="svg_46"/></g><g id="svg_47"><path style="opacity:1" fill="#000000" d="M 80.5,223.5 C 85.8333,223.5 91.1667,223.5 96.5,223.5C 96.5,244.833 96.5,266.167 96.5,287.5C 101.833,287.5 107.167,287.5 112.5,287.5C 112.5,292.833 112.5,298.167 112.5,303.5C 101.833,303.5 91.1667,303.5 80.5,303.5C 80.5,276.833 80.5,250.167 80.5,223.5 Z" id="svg_48"/></g><g id="svg_49" class=""><path style="opacity:1" fill="#000000" d="M 176.5,223.5 C 181.833,223.5 187.167,223.5 192.5,223.5C 192.5,228.833 192.5,234.167 192.5,239.5C 187.167,239.5 181.833,239.5 176.5,239.5C 176.5,234.167 176.5,228.833 176.5,223.5 Z" id="svg_50"/></g><g id="svg_51"><path style="opacity:1" fill="#000000" d="M 288.5,223.5 C 288.5,228.833 288.5,234.167 288.5,239.5C 277.833,239.5 267.167,239.5 256.5,239.5C 256.5,234.167 256.5,228.833 256.5,223.5C 267.167,223.5 277.833,223.5 288.5,223.5 Z" id="svg_52"/></g><g id="svg_53"><path style="opacity:1" fill="#000000" d="M 256.5,239.5 C 256.5,260.833 256.5,282.167 256.5,303.5C 245.833,303.5 235.167,303.5 224.5,303.5C 224.5,298.167 224.5,292.833 224.5,287.5C 229.833,287.5 235.167,287.5 240.5,287.5C 240.5,276.833 240.5,266.167 240.5,255.5C 240.5,250.167 240.5,244.833 240.5,239.5C 245.833,239.5 251.167,239.5 256.5,239.5 Z" id="svg_54"/></g><g id="svg_55"><path style="opacity:1" fill="#000000" d="M 160.5,287.5 C 160.5,292.833 160.5,298.167 160.5,303.5C 149.833,303.5 139.167,303.5 128.5,303.5C 128.5,298.167 128.5,292.833 128.5,287.5C 123.167,287.5 117.833,287.5 112.5,287.5C 112.5,282.167 112.5,276.833 112.5,271.5C 123.167,271.5 133.833,271.5 144.5,271.5C 144.5,276.833 144.5,282.167 144.5,287.5C 149.833,287.5 155.167,287.5 160.5,287.5 Z" id="svg_56"/></g><g id="svg_57"><path style="opacity:1" fill="#000000" d="M 224.5,287.5 C 203.167,287.5 181.833,287.5 160.5,287.5C 160.5,282.167 160.5,276.833 160.5,271.5C 181.833,271.5 203.167,271.5 224.5,271.5C 224.5,276.833 224.5,282.167 224.5,287.5 Z" id="svg_58"/></g><g id="svg_59"><path style="opacity:0" fill="red" d="M 112.5,287.5 C 117.833,287.5 123.167,287.5 128.5,287.5C 128.5,292.833 128.5,298.167 128.5,303.5C 123.167,303.5 117.833,303.5 112.5,303.5C 112.5,298.167 112.5,292.833 112.5,287.5 Z" id="svg_60"/></g><g id="svg_61"><path style="opacity:0" fill="red" d="M 160.5,287.5 C 181.833,287.5 203.167,287.5 224.5,287.5C 224.5,292.833 224.5,298.167 224.5,303.5C 203.167,303.5 181.833,303.5 160.5,303.5C 160.5,298.167 160.5,292.833 160.5,287.5 Z" id="svg_62"/></g></g></svg>