<?xml version="1.0" encoding="UTF-8"?>
<svg viewBox="0 0 110 76" xmlns="http://www.w3.org/2000/svg">
    <defs>
        <linearGradient x1="69.7599064%" y1="65.7395082%" x2="6.24025835%" y2="29.4422%" id="linearGradient-1">
            <stop stop-color="#9635BF" offset="0%"></stop>
            <stop stop-color="#4D94F0" offset="40%"></stop>
            <stop stop-color="#02D18C" offset="100%"></stop>
        </linearGradient>
    </defs>
    <g id="Page-1" stroke="none" stroke-width="1" fill="none" fill-rule="evenodd">
        <g id="pluginIcon-copy" transform="translate(5.000000, 5.000000)" fill-rule="nonzero">
            <g id="intellij3-copy" stroke-linejoin="round" fill="#FFFFFF" stroke="#FFFFFF" stroke-width="10">
                <path d="M86.1299194,29.2776197 C84.8931958,29.0861783 84.0456377,27.9279279 84.2369606,26.6912044 C84.4284021,25.4543623 85.5866524,24.6068042 86.823376,24.7982456 C89.630275,25.2375533 92.2964675,26.438478 94.480678,28.2853248 C96.5608108,30.0438596 98.211119,32.3873874 99.1388099,35.2160977 C99.7217876,36.9928876 99.9985775,38.7522523 99.9985775,40.4433381 C99.9985775,43.6188952 99.0365102,46.5717165 97.3044097,48.9890944 C95.571835,51.4068279 93.0713608,53.277027 89.9954955,54.285799 C88.3744666,54.8175676 86.6043148,55.1072783 84.7164533,55.1072783 L29.9851826,55.1072783 C29.0393551,55.1072783 28.2281887,54.5299905 27.8847795,53.7081555 L15.1301565,28.529872 L2.27513039,28.529872 C1.01861072,28.529872 0,27.5111427 0,26.2547416 C0,24.9982219 1.01872926,23.9794927 2.27513039,23.9794927 L16.5216927,23.9794927 L16.5216927,23.9847084 C17.3507587,23.9853011 18.1494784,24.4417971 18.5480085,25.2326932 L31.3767188,50.556899 L84.7164533,50.556899 C86.1286155,50.556899 87.4269796,50.3483879 88.5916311,49.9664533 C90.7077999,49.272404 92.4236605,47.9922949 93.6070413,46.3408013 C94.7907776,44.688715 95.4480797,42.6513751 95.4480797,40.4433381 C95.4480797,39.2059033 95.2457326,37.9193931 94.8194642,36.6200806 C94.1679706,34.6328829 93.0084163,32.9864865 91.54789,31.751541 C89.9964438,30.4397819 88.1096491,29.5873637 86.1299194,29.2776197 L86.1299194,29.2776197 Z" id="Path"></path>
                <path d="M88.0686344,28.1761498 C87.4061166,29.240991 86.0052157,29.5673305 84.9404931,28.9048127 C83.875652,28.2422949 83.5493125,26.841394 84.2118303,25.7765529 C84.8891655,24.6883594 85.2325747,23.4638454 85.2401612,22.2446657 C85.2477477,21.0109056 84.9220009,19.7769085 84.262091,18.6868184 L84.2597202,18.6829066 L84.2533191,18.6868184 C83.5756283,17.5668563 82.6096491,16.6650071 81.4933618,16.0894974 C80.4409673,15.5474158 79.2511854,15.2976529 78.0457563,15.4366999 C77.5770507,15.4906354 77.1369132,15.5820294 76.730441,15.7056662 C76.311522,15.8333333 75.8924846,16.0065197 75.4805595,16.2189426 C74.366643,16.793267 72.9976292,16.3555002 72.4233049,15.2415837 C71.8490991,14.1276671 72.2868658,12.7586534 73.4006638,12.1843291 C74.0279753,11.8610716 74.7024656,11.5865339 75.4150071,11.3688952 C76.1175913,11.1546942 76.8265766,11.003082 77.5299905,10.9220009 C79.6552869,10.6772167 81.7400427,11.1101233 83.5731389,12.0547653 C85.4330251,13.013395 87.032954,14.5016596 88.1459222,16.3405642 L88.1395211,16.3445946 C89.2415837,18.1667852 89.7855619,20.2184685 89.7728781,22.262091 C89.7601944,24.3221906 89.1913229,26.3732812 88.0686344,28.1760313 L88.0686344,28.1761498 Z" id="Path"></path>
                <path d="M26.6629919,28.6545756 C26.6774538,29.9062352 25.6749644,30.9330251 24.4231863,30.9480297 C23.1715268,30.9621859 22.1447368,29.959578 22.1301565,28.7079184 C22.0809625,24.8683025 23.2473921,21.221669 25.3269322,18.2072072 C27.4076577,15.1912044 30.4044571,12.805358 34.0143433,11.4873163 C37.6155761,10.1725936 41.4408487,10.0679232 44.9767662,11.0335467 C48.512091,11.9994073 51.754386,14.0361546 54.1894263,17.0027264 C54.9844713,17.9695353 54.8451873,19.398056 53.8784969,20.193101 C52.911688,20.9882646 51.4831674,20.848862 50.6881223,19.8821716 C48.8609531,17.6564723 46.4319583,16.1290896 43.785799,15.4061166 C41.1396396,14.6834993 38.269559,14.7641062 35.5609294,15.753082 C32.8610716,16.7386202 30.6180654,18.525486 29.0593883,20.784495 C27.5004742,23.0445709 26.6262447,25.7771456 26.6629919,28.6545756 L26.6629919,28.6545756 Z" id="Path"></path>
                <path d="M44.5340209,13.2594832 C44.0676861,14.4225936 42.7465624,14.9876719 41.5834519,14.5214557 C40.4204599,14.0551209 39.8552632,12.7339972 40.3215979,11.5708867 C41.9439308,7.5535799 44.8482693,4.37008061 48.4118065,2.37162162 C51.9749881,0.373399716 56.2004505,-0.445708867 60.4652679,0.262565197 C64.7341157,0.971906117 68.4715505,3.11723566 71.200569,6.16477003 C73.9288762,9.21171171 75.6492413,13.1625178 75.884661,17.4829303 C75.9483167,18.7347084 74.9854196,19.8012091 73.7337601,19.8649834 C72.4821005,19.9286392 71.4154813,18.9658606 71.3518255,17.7140825 C71.1743717,14.4575628 69.8783784,11.4810337 67.8234945,9.18610716 C65.7692034,6.89189189 62.9534139,5.27607871 59.736605,4.74193931 C56.5163585,4.20708867 53.324917,4.82562826 50.6334756,6.33511143 C47.943101,7.8440019 45.753082,10.2402798 44.5339023,13.2592461 L44.5340209,13.2594832 Z" id="Path"></path>
                <path d="M41.8807492,61.3642722 C42.6140351,61.3642722 43.2759602,61.070294 43.753082,60.5955429 C44.2278331,60.1183025 44.5218113,59.456496 44.5218113,58.7234471 C44.5218113,57.9902798 44.2278331,57.3283547 43.753082,56.8511143 C43.2759602,56.3763632 42.6140351,56.0825036 41.8807492,56.0825036 C41.1479374,56.0825036 40.4858938,56.3763632 40.0087719,56.8511143 C39.5340209,57.3283547 39.2400427,57.9902798 39.2400427,58.7234471 C39.2400427,59.4563774 39.5340209,60.1183025 40.0087719,60.5955429 C40.4858938,61.070294 41.1478189,61.3642722 41.8807492,61.3642722 Z M46.9568516,63.8083215 C45.6554054,65.1095306 43.8597677,65.914533 41.8807492,65.914533 C39.9013751,65.914533 38.10633,65.109412 36.8050024,63.8083215 L36.7958748,63.7993125 C35.4947843,62.4978663 34.6897819,60.7029398 34.6897819,58.7234471 C34.6897819,56.7443101 35.4949028,54.9487909 36.7958748,53.6474633 L36.8050024,53.6383357 C38.10633,52.3372451 39.9013751,51.5321242 41.8807492,51.5321242 C43.8598862,51.5321242 45.6554054,52.3372451 46.9568516,53.6383357 L46.9659791,53.6474633 C48.2670697,54.9487909 49.0720721,56.7444286 49.0720721,58.7234471 C49.0720721,60.7029398 48.2669512,62.4978663 46.9659791,63.7993125 L46.9568516,63.8083215 L46.9568516,63.8083215 Z" id="Shape"></path>
                <path d="M77.8221906,61.3642722 C78.5554765,61.3642722 79.2172831,61.070294 79.6945235,60.5955429 C80.1692745,60.1183025 80.4632527,59.456496 80.4632527,58.7234471 C80.4632527,57.9902798 80.1692745,57.3283547 79.6945235,56.8511143 C79.2172831,56.3763632 78.5554765,56.0825036 77.8221906,56.0825036 C77.0892603,56.0825036 76.4273352,56.3763632 75.9500948,56.8511143 C75.4753438,57.3283547 75.1814841,57.9902798 75.1814841,58.7234471 C75.1814841,59.4563774 75.4753438,60.1183025 75.9500948,60.5955429 C76.4273352,61.070294 77.0891418,61.3642722 77.8221906,61.3642722 Z M82.8981745,63.8083215 C81.5968468,65.1095306 79.8012091,65.914533 77.8221906,65.914533 C75.8428165,65.914533 74.0477715,65.109412 72.7464438,63.8083215 L72.7373163,63.7993125 C71.4362257,62.4978663 70.6311048,60.7029398 70.6311048,58.7234471 C70.6311048,56.7443101 71.4362257,54.9487909 72.7373163,53.6474633 L72.7464438,53.6383357 C74.0477715,52.3372451 75.8428165,51.5321242 77.8221906,51.5321242 C79.8013276,51.5321242 81.5968468,52.3372451 82.8981745,53.6383357 L82.907302,53.6474633 C84.2085111,54.9487909 85.0135135,56.7444286 85.0135135,58.7234471 C85.0135135,60.7029398 84.2083926,62.4978663 82.907302,63.7993125 L82.8981745,63.8083215 Z" id="Shape"></path>
                <path d="M21.4621859,50.5465861 C22.7187055,50.5465861 23.7373163,51.5653153 23.7373163,52.8217165 C23.7373163,54.0782361 22.718587,55.0968468 21.4621859,55.0968468 L11.8543148,55.0968468 C10.5977952,55.0968468 9.57918445,54.0781176 9.57918445,52.8217165 C9.57918445,51.5651968 10.5979137,50.5465861 11.8543148,50.5465861 L21.4621859,50.5465861 Z" id="Path"></path>
                <path d="M15.8412755,37.7094595 C17.0977952,37.7094595 18.1164059,38.7281887 18.1164059,39.9845899 C18.1164059,41.2411095 17.0976766,42.2597202 15.8412755,42.2597202 L6.23340446,42.2597202 C4.97688478,42.2597202 3.95827406,41.240991 3.95827406,39.9845899 C3.95827406,38.7280702 4.97700332,37.7094595 6.23340446,37.7094595 L15.8412755,37.7094595 Z" id="Path"></path>
                <path d="M45.0967283,43.706496 C45.7464438,44.7846136 45.3991228,46.1857515 44.3211238,46.8355856 C43.2430062,47.4854196 41.8417496,47.1379801 41.1919156,46.059981 L35.5683973,36.7547416 C35.1102418,35.9947843 35.1479374,35.0742058 35.5877193,34.3694879 L41.1919156,25.0961356 C41.8417496,24.018018 43.2428876,23.670697 44.3211238,24.3205311 C45.3992413,24.9702466 45.7465624,26.3715031 45.0967283,27.4496207 L40.184092,35.5781176 L45.0967283,43.7066145 L45.0967283,43.706496 Z" id="Path"></path>
                <path d="M72.3460171,46.059981 C71.696183,47.1380986 70.295045,47.4854196 69.2169275,46.8355856 C68.1388099,46.1857515 67.7914889,44.7846136 68.4412044,43.706496 L73.3538407,35.5779991 L68.4412044,27.4495021 C67.7914889,26.3713845 68.1388099,24.970128 69.2169275,24.3204125 C70.295045,23.6705785 71.696183,24.0178995 72.3460171,25.0960171 L77.9502134,34.3693694 C78.3899953,35.0740872 78.4276908,35.9946657 77.9696539,36.754623 L72.3460171,46.0598625 L72.3460171,46.059981 Z" id="Path"></path>
                <path d="M53.4586297,45.4326695 C52.8188715,46.5156472 51.4216453,46.8747037 50.3386676,46.2349455 C49.2556899,45.5951873 48.8965149,44.1979611 49.5362731,43.1149834 L60.1992651,25.1186581 C60.8390232,24.0356804 62.2363679,23.6765055 63.3192271,24.3162636 C64.4022048,24.9560218 64.7613798,26.3533665 64.1216216,27.4362257 L53.4586297,45.432551 L53.4586297,45.4326695 Z" id="Path"></path>
            </g>
            <rect id="Rectangle" fill="#FFFFFF" x="34.6846847" y="57.0649597" width="12.5533428" height="6.09293504"></rect>
            <rect id="Rectangle" fill="#FFFFFF" x="71.4556662" y="56.0810811" width="12.1147463" height="8.81934566"></rect>
            <g id="intellij3-copy">
                <path d="M29.9853011,52.8321479 C22.1614509,43.2227359 20.2984827,35.1725936 24.3965149,28.681247 C29.7146752,20.6823139 33.9192745,14.7663585 44.959578,15.7206022 C52.1724751,6.1697487 64.6465149,5.72012802 71.2390944,15.6644144 C72.1230441,19.3954481 73.5685159,18.8376008 73.5685159,18.8376008 C79.1442627,17.3656946 84.9983404,20.9996444 84.0184922,27.7405168 C87.8361783,30.9388336 92.4799668,34.9755808 92.434071,39.9556662 C92.3866761,44.9359886 90.1130868,49.6337127 86.2357752,52.7598388 C48.7354196,52.8080844 29.9851826,52.8321479 29.9851826,52.8321479 L29.9853011,52.8321479 Z" id="Path" fill="url(#linearGradient-1)"></path>
                <path d="M86.1299194,29.2776197 C84.8931958,29.0861783 84.0456377,27.9279279 84.2369606,26.6912044 C84.4284021,25.4543623 85.5866524,24.6068042 86.823376,24.7982456 C89.630275,25.2375533 92.2964675,26.438478 94.480678,28.2853248 C96.5608108,30.0438596 98.211119,32.3873874 99.1388099,35.2160977 C99.7217876,36.9928876 99.9985775,38.7522523 99.9985775,40.4433381 C99.9985775,43.6188952 99.0365102,46.5717165 97.3044097,48.9890944 C95.571835,51.4068279 93.0713608,53.277027 89.9954955,54.285799 C88.3744666,54.8175676 86.6043148,55.1072783 84.7164533,55.1072783 L29.9851826,55.1072783 C29.0393551,55.1072783 28.2281887,54.5299905 27.8847795,53.7081555 L15.1301565,28.529872 L2.27513039,28.529872 C1.01861072,28.529872 0,27.5111427 0,26.2547416 C0,24.9982219 1.01872926,23.9794927 2.27513039,23.9794927 L16.5216927,23.9794927 L16.5216927,23.9847084 C17.3507587,23.9853011 18.1494784,24.4417971 18.5480085,25.2326932 L31.3767188,50.556899 L84.7164533,50.556899 C86.1286155,50.556899 87.4269796,50.3483879 88.5916311,49.9664533 C90.7077999,49.272404 92.4236605,47.9922949 93.6070413,46.3408013 C94.7907776,44.688715 95.4480797,42.6513751 95.4480797,40.4433381 C95.4480797,39.2059033 95.2457326,37.9193931 94.8194642,36.6200806 C94.1679706,34.6328829 93.0084163,32.9864865 91.54789,31.751541 C89.9964438,30.4397819 88.1096491,29.5873637 86.1299194,29.2776197 L86.1299194,29.2776197 Z" id="Path" fill="#1D283D"></path>
                <path d="M88.0686344,28.1761498 C87.4061166,29.240991 86.0052157,29.5673305 84.9404931,28.9048127 C83.875652,28.2422949 83.5493125,26.841394 84.2118303,25.7765529 C84.8891655,24.6883594 85.2325747,23.4638454 85.2401612,22.2446657 C85.2477477,21.0109056 84.9220009,19.7769085 84.262091,18.6868184 L84.2597202,18.6829066 L84.2533191,18.6868184 C83.5756283,17.5668563 82.6096491,16.6650071 81.4933618,16.0894974 C80.4409673,15.5474158 79.2511854,15.2976529 78.0457563,15.4366999 C77.5770507,15.4906354 77.1369132,15.5820294 76.730441,15.7056662 C76.311522,15.8333333 75.8924846,16.0065197 75.4805595,16.2189426 C74.366643,16.793267 72.9976292,16.3555002 72.4233049,15.2415837 C71.8490991,14.1276671 72.2868658,12.7586534 73.4006638,12.1843291 C74.0279753,11.8610716 74.7024656,11.5865339 75.4150071,11.3688952 C76.1175913,11.1546942 76.8265766,11.003082 77.5299905,10.9220009 C79.6552869,10.6772167 81.7400427,11.1101233 83.5731389,12.0547653 C85.4330251,13.013395 87.032954,14.5016596 88.1459222,16.3405642 L88.1395211,16.3445946 C89.2415837,18.1667852 89.7855619,20.2184685 89.7728781,22.262091 C89.7601944,24.3221906 89.1913229,26.3732812 88.0686344,28.1760313 L88.0686344,28.1761498 Z" id="Path" fill="#1D283D"></path>
                <path d="M26.6629919,28.6545756 C26.6774538,29.9062352 25.6749644,30.9330251 24.4231863,30.9480297 C23.1715268,30.9621859 22.1447368,29.959578 22.1301565,28.7079184 C22.0809625,24.8683025 23.2473921,21.221669 25.3269322,18.2072072 C27.4076577,15.1912044 30.4044571,12.805358 34.0143433,11.4873163 C37.6155761,10.1725936 41.4408487,10.0679232 44.9767662,11.0335467 C48.512091,11.9994073 51.754386,14.0361546 54.1894263,17.0027264 C54.9844713,17.9695353 54.8451873,19.398056 53.8784969,20.193101 C52.911688,20.9882646 51.4831674,20.848862 50.6881223,19.8821716 C48.8609531,17.6564723 46.4319583,16.1290896 43.785799,15.4061166 C41.1396396,14.6834993 38.269559,14.7641062 35.5609294,15.753082 C32.8610716,16.7386202 30.6180654,18.525486 29.0593883,20.784495 C27.5004742,23.0445709 26.6262447,25.7771456 26.6629919,28.6545756 L26.6629919,28.6545756 Z" id="Path" fill="#1D283D"></path>
                <path d="M44.5340209,13.2594832 C44.0676861,14.4225936 42.7465624,14.9876719 41.5834519,14.5214557 C40.4204599,14.0551209 39.8552632,12.7339972 40.3215979,11.5708867 C41.9439308,7.5535799 44.8482693,4.37008061 48.4118065,2.37162162 C51.9749881,0.373399716 56.2004505,-0.445708867 60.4652679,0.262565197 C64.7341157,0.971906117 68.4715505,3.11723566 71.200569,6.16477003 C73.9288762,9.21171171 75.6492413,13.1625178 75.884661,17.4829303 C75.9483167,18.7347084 74.9854196,19.8012091 73.7337601,19.8649834 C72.4821005,19.9286392 71.4154813,18.9658606 71.3518255,17.7140825 C71.1743717,14.4575628 69.8783784,11.4810337 67.8234945,9.18610716 C65.7692034,6.89189189 62.9534139,5.27607871 59.736605,4.74193931 C56.5163585,4.20708867 53.324917,4.82562826 50.6334756,6.33511143 C47.943101,7.8440019 45.753082,10.2402798 44.5339023,13.2592461 L44.5340209,13.2594832 Z" id="Path" fill="#1D283D"></path>
                <path d="M41.8807492,61.3642722 C42.6140351,61.3642722 43.2759602,61.070294 43.753082,60.5955429 C44.2278331,60.1183025 44.5218113,59.456496 44.5218113,58.7234471 C44.5218113,57.9902798 44.2278331,57.3283547 43.753082,56.8511143 C43.2759602,56.3763632 42.6140351,56.0825036 41.8807492,56.0825036 C41.1479374,56.0825036 40.4858938,56.3763632 40.0087719,56.8511143 C39.5340209,57.3283547 39.2400427,57.9902798 39.2400427,58.7234471 C39.2400427,59.4563774 39.5340209,60.1183025 40.0087719,60.5955429 C40.4858938,61.070294 41.1478189,61.3642722 41.8807492,61.3642722 Z M46.9568516,63.8083215 C45.6554054,65.1095306 43.8597677,65.914533 41.8807492,65.914533 C39.9013751,65.914533 38.10633,65.109412 36.8050024,63.8083215 L36.7958748,63.7993125 C35.4947843,62.4978663 34.6897819,60.7029398 34.6897819,58.7234471 C34.6897819,56.7443101 35.4949028,54.9487909 36.7958748,53.6474633 L36.8050024,53.6383357 C38.10633,52.3372451 39.9013751,51.5321242 41.8807492,51.5321242 C43.8598862,51.5321242 45.6554054,52.3372451 46.9568516,53.6383357 L46.9659791,53.6474633 C48.2670697,54.9487909 49.0720721,56.7444286 49.0720721,58.7234471 C49.0720721,60.7029398 48.2669512,62.4978663 46.9659791,63.7993125 L46.9568516,63.8083215 L46.9568516,63.8083215 Z" id="Shape" fill="#1D283D"></path>
                <path d="M77.8221906,61.3642722 C78.5554765,61.3642722 79.2172831,61.070294 79.6945235,60.5955429 C80.1692745,60.1183025 80.4632527,59.456496 80.4632527,58.7234471 C80.4632527,57.9902798 80.1692745,57.3283547 79.6945235,56.8511143 C79.2172831,56.3763632 78.5554765,56.0825036 77.8221906,56.0825036 C77.0892603,56.0825036 76.4273352,56.3763632 75.9500948,56.8511143 C75.4753438,57.3283547 75.1814841,57.9902798 75.1814841,58.7234471 C75.1814841,59.4563774 75.4753438,60.1183025 75.9500948,60.5955429 C76.4273352,61.070294 77.0891418,61.3642722 77.8221906,61.3642722 Z M82.8981745,63.8083215 C81.5968468,65.1095306 79.8012091,65.914533 77.8221906,65.914533 C75.8428165,65.914533 74.0477715,65.109412 72.7464438,63.8083215 L72.7373163,63.7993125 C71.4362257,62.4978663 70.6311048,60.7029398 70.6311048,58.7234471 C70.6311048,56.7443101 71.4362257,54.9487909 72.7373163,53.6474633 L72.7464438,53.6383357 C74.0477715,52.3372451 75.8428165,51.5321242 77.8221906,51.5321242 C79.8013276,51.5321242 81.5968468,52.3372451 82.8981745,53.6383357 L82.907302,53.6474633 C84.2085111,54.9487909 85.0135135,56.7444286 85.0135135,58.7234471 C85.0135135,60.7029398 84.2083926,62.4978663 82.907302,63.7993125 L82.8981745,63.8083215 Z" id="Shape" fill="#1D283D"></path>
                <path d="M21.4621859,50.5465861 C22.7187055,50.5465861 23.7373163,51.5653153 23.7373163,52.8217165 C23.7373163,54.0782361 22.718587,55.0968468 21.4621859,55.0968468 L11.8543148,55.0968468 C10.5977952,55.0968468 9.57918445,54.0781176 9.57918445,52.8217165 C9.57918445,51.5651968 10.5979137,50.5465861 11.8543148,50.5465861 L21.4621859,50.5465861 Z" id="Path" fill="#1D283D"></path>
                <path d="M15.8412755,37.7094595 C17.0977952,37.7094595 18.1164059,38.7281887 18.1164059,39.9845899 C18.1164059,41.2411095 17.0976766,42.2597202 15.8412755,42.2597202 L6.23340446,42.2597202 C4.97688478,42.2597202 3.95827406,41.240991 3.95827406,39.9845899 C3.95827406,38.7280702 4.97700332,37.7094595 6.23340446,37.7094595 L15.8412755,37.7094595 Z" id="Path" fill="#1D283D"></path>
                <path d="M45.0967283,43.706496 C45.7464438,44.7846136 45.3991228,46.1857515 44.3211238,46.8355856 C43.2430062,47.4854196 41.8417496,47.1379801 41.1919156,46.059981 L35.5683973,36.7547416 C35.1102418,35.9947843 35.1479374,35.0742058 35.5877193,34.3694879 L41.1919156,25.0961356 C41.8417496,24.018018 43.2428876,23.670697 44.3211238,24.3205311 C45.3992413,24.9702466 45.7465624,26.3715031 45.0967283,27.4496207 L40.184092,35.5781176 L45.0967283,43.7066145 L45.0967283,43.706496 Z" id="Path" fill="#1D283D"></path>
                <path d="M72.3460171,46.059981 C71.696183,47.1380986 70.295045,47.4854196 69.2169275,46.8355856 C68.1388099,46.1857515 67.7914889,44.7846136 68.4412044,43.706496 L73.3538407,35.5779991 L68.4412044,27.4495021 C67.7914889,26.3713845 68.1388099,24.970128 69.2169275,24.3204125 C70.295045,23.6705785 71.696183,24.0178995 72.3460171,25.0960171 L77.9502134,34.3693694 C78.3899953,35.0740872 78.4276908,35.9946657 77.9696539,36.754623 L72.3460171,46.0598625 L72.3460171,46.059981 Z" id="Path" fill="#1D283D"></path>
                <path d="M53.4586297,45.4326695 C52.8188715,46.5156472 51.4216453,46.8747037 50.3386676,46.2349455 C49.2556899,45.5951873 48.8965149,44.1979611 49.5362731,43.1149834 L60.1992651,25.1186581 C60.8390232,24.0356804 62.2363679,23.6765055 63.3192271,24.3162636 C64.4022048,24.9560218 64.7613798,26.3533665 64.1216216,27.4362257 L53.4586297,45.432551 L53.4586297,45.4326695 Z" id="Path" fill="#1D283D"></path>
            </g>
            <rect id="Rectangle" fill="#FFFFFF" x="12.209578" y="45.353248" width="7.94215268" height="5.19203414"></rect>
            <rect id="Rectangle" fill="#FFFFFF" x="8.83119962" y="31.7923186" width="6.7449028" height="2.4419156"></rect>
        </g>
    </g>
</svg>